<svg xmlns="http://www.w3.org/2000/svg" xmlns:xlink="http://www.w3.org/1999/xlink" width="500" zoomAndPan="magnify" viewBox="0 0 375 374.999991" height="500" preserveAspectRatio="xMidYMid meet" version="1.0"><path fill="#003348" d="M 327.800781 92.199219 L 237.800781 2.199219 C 236.398438 0.789062 234.496094 0 232.5 0 L 52.5 0 C 48.359375 0 45 3.359375 45 7.5 L 45 367.5 C 45 371.648438 48.359375 375 52.5 375 L 322.5 375 C 326.648438 375 330 371.648438 330 367.5 L 330 97.5 C 330 95.511719 329.210938 93.601562 327.800781 92.199219 Z M 240 25.605469 L 304.394531 90 L 240 90 Z M 60 360 L 60 15 L 225 15 L 225 97.5 C 225 101.640625 228.351562 105 232.5 105 L 315 105 L 315 360 Z M 60 360 " fill-opacity="1" fill-rule="nonzero"/><path fill="#003348" d="M 112.5 105 L 172.5 105 C 176.640625 105 180 101.640625 180 97.5 C 180 93.359375 176.640625 90 172.5 90 L 112.5 90 C 108.359375 90 105 93.359375 105 97.5 C 105 101.640625 108.359375 105 112.5 105 Z M 112.5 105 " fill-opacity="1" fill-rule="nonzero"/><path fill="#003348" d="M 262.5 150 L 112.5 150 C 108.359375 150 105 153.359375 105 157.5 C 105 161.640625 108.359375 165 112.5 165 L 262.5 165 C 266.648438 165 270 161.640625 270 157.5 C 270 153.359375 266.648438 150 262.5 150 Z M 262.5 150 " fill-opacity="1" fill-rule="nonzero"/><path fill="#003348" d="M 262.5 210 L 112.5 210 C 108.359375 210 105 213.351562 105 217.5 C 105 221.648438 108.359375 225 112.5 225 L 262.5 225 C 266.648438 225 270 221.648438 270 217.5 C 270 213.351562 266.648438 210 262.5 210 Z M 262.5 210 " fill-opacity="1" fill-rule="nonzero"/><path fill="#003348" d="M 262.5 270 L 112.5 270 C 108.359375 270 105 273.351562 105 277.5 C 105 281.648438 108.359375 285 112.5 285 L 262.5 285 C 266.648438 285 270 281.648438 270 277.5 C 270 273.351562 266.648438 270 262.5 270 Z M 262.5 270 " fill-opacity="1" fill-rule="nonzero"/></svg>