<svg xmlns="http://www.w3.org/2000/svg" xmlns:xlink="http://www.w3.org/1999/xlink" width="500" zoomAndPan="magnify" viewBox="0 0 375 374.999991" height="500" preserveAspectRatio="xMidYMid meet" version="1.0"><defs><clipPath id="410e768136"><path d="M 7 14 L 368 14 L 368 361.703125 L 7 361.703125 Z M 7 14 " clip-rule="nonzero"/></clipPath></defs><g clip-path="url(#410e768136)"><path fill="#003348" d="M 347.8125 195.480469 L 333.0625 195.480469 L 333.0625 346.722656 C 333 347.742188 332.835938 348.746094 332.578125 349.734375 C 332.316406 350.722656 331.964844 351.675781 331.519531 352.59375 C 331.070312 353.515625 330.542969 354.382812 329.925781 355.195312 C 329.308594 356.011719 328.621094 356.761719 327.859375 357.441406 C 327.097656 358.121094 326.277344 358.722656 325.398438 359.242188 C 324.519531 359.761719 323.597656 360.191406 322.632812 360.53125 C 321.671875 360.871094 320.683594 361.117188 319.671875 361.261719 C 318.660156 361.410156 317.644531 361.457031 316.625 361.40625 L 229.492188 361.40625 L 229.492188 258.285156 C 229.492188 257.578125 229.425781 256.875 229.285156 256.183594 C 229.148438 255.488281 228.945312 254.816406 228.675781 254.160156 C 228.402344 253.507812 228.070312 252.886719 227.679688 252.300781 C 227.285156 251.710938 226.839844 251.167969 226.339844 250.667969 C 225.839844 250.167969 225.296875 249.71875 224.707031 249.328125 C 224.121094 248.933594 223.5 248.601562 222.847656 248.332031 C 222.191406 248.058594 221.519531 247.855469 220.824219 247.714844 C 220.132812 247.578125 219.433594 247.507812 218.726562 247.507812 L 155.507812 247.507812 C 154.800781 247.507812 154.101562 247.578125 153.40625 247.714844 C 152.714844 247.851562 152.039062 248.058594 151.386719 248.328125 C 150.734375 248.597656 150.113281 248.929688 149.523438 249.324219 C 148.9375 249.71875 148.390625 250.164062 147.890625 250.664062 C 147.390625 251.164062 146.945312 251.710938 146.550781 252.296875 C 146.160156 252.886719 145.828125 253.507812 145.558594 254.160156 C 145.289062 254.8125 145.082031 255.488281 144.945312 256.183594 C 144.808594 256.875 144.738281 257.574219 144.738281 258.285156 L 144.738281 361.398438 L 57.601562 361.398438 C 56.585938 361.453125 55.574219 361.410156 54.566406 361.265625 C 53.558594 361.121094 52.574219 360.878906 51.613281 360.539062 C 50.652344 360.203125 49.730469 359.773438 48.855469 359.257812 C 47.976562 358.738281 47.160156 358.140625 46.402344 357.460938 C 45.640625 356.785156 44.953125 356.039062 44.339844 355.226562 C 43.726562 354.410156 43.199219 353.546875 42.757812 352.628906 C 42.3125 351.714844 41.964844 350.761719 41.707031 349.777344 C 41.449219 348.789062 41.289062 347.789062 41.230469 346.773438 L 41.230469 195.480469 L 26.417969 195.480469 C 10 195.480469 1.105469 180.023438 11.859375 170.101562 L 173.972656 20.234375 C 174.988281 19.375 176.070312 18.609375 177.21875 17.945312 C 178.367188 17.277344 179.566406 16.714844 180.8125 16.257812 C 182.0625 15.800781 183.339844 15.460938 184.648438 15.230469 C 185.957031 15 187.277344 14.886719 188.605469 14.886719 C 189.933594 14.890625 191.253906 15.007812 192.558594 15.246094 C 193.867188 15.480469 195.144531 15.828125 196.390625 16.289062 C 197.636719 16.75 198.832031 17.316406 199.980469 17.988281 C 201.125 18.660156 202.203125 19.429688 203.214844 20.289062 C 256.289062 70.246094 309.382812 120.199219 362.503906 170.15625 C 373.058594 180.167969 364.171875 195.480469 347.8125 195.480469 Z M 347.8125 195.480469 " fill-opacity="1" fill-rule="nonzero"/></g></svg>