<svg xmlns="http://www.w3.org/2000/svg" xmlns:xlink="http://www.w3.org/1999/xlink" width="500" zoomAndPan="magnify" viewBox="0 0 375 374.999991" height="500" preserveAspectRatio="xMidYMid meet" version="1.0"><path fill="#003348" d="M 187.5 25.863281 C 184.855469 25.863281 182.210938 25.925781 179.570312 26.058594 C 176.925781 26.1875 174.289062 26.382812 171.65625 26.640625 C 169.023438 26.898438 166.398438 27.222656 163.78125 27.613281 C 161.167969 28 158.558594 28.453125 155.964844 28.96875 C 153.371094 29.484375 150.792969 30.0625 148.226562 30.707031 C 145.660156 31.347656 143.109375 32.054688 140.578125 32.820312 C 138.046875 33.589844 135.535156 34.417969 133.046875 35.3125 C 130.554688 36.203125 128.085938 37.152344 125.644531 38.167969 C 123.199219 39.179688 120.78125 40.25 118.390625 41.382812 C 116 42.511719 113.636719 43.699219 111.304688 44.949219 C 108.972656 46.195312 106.671875 47.5 104.402344 48.859375 C 102.132812 50.21875 99.898438 51.632812 97.699219 53.101562 C 95.5 54.574219 93.335938 56.09375 91.210938 57.671875 C 89.085938 59.246094 87.003906 60.875 84.957031 62.550781 C 82.914062 64.230469 80.910156 65.957031 78.949219 67.734375 C 76.992188 69.511719 75.074219 71.335938 73.203125 73.203125 C 71.335938 75.074219 69.511719 76.992188 67.734375 78.949219 C 65.957031 80.910156 64.230469 82.914062 62.550781 84.957031 C 60.875 87.003906 59.246094 89.085938 57.671875 91.210938 C 56.09375 93.335938 54.574219 95.5 53.101562 97.699219 C 51.632812 99.898438 50.21875 102.132812 48.859375 104.402344 C 47.5 106.671875 46.195312 108.972656 44.949219 111.304688 C 43.699219 113.636719 42.511719 116 41.382812 118.390625 C 40.25 120.78125 39.179688 123.199219 38.167969 125.644531 C 37.152344 128.085938 36.203125 130.554688 35.3125 133.046875 C 34.417969 135.535156 33.589844 138.046875 32.820312 140.578125 C 32.054688 143.109375 31.347656 145.660156 30.707031 148.226562 C 30.0625 150.792969 29.484375 153.371094 28.96875 155.964844 C 28.453125 158.558594 28 161.167969 27.613281 163.78125 C 27.222656 166.398438 26.898438 169.023438 26.640625 171.65625 C 26.382812 174.289062 26.1875 176.925781 26.058594 179.570312 C 25.925781 182.210938 25.863281 184.855469 25.863281 187.5 C 25.863281 190.144531 25.925781 192.789062 26.058594 195.429688 C 26.1875 198.074219 26.382812 200.710938 26.640625 203.34375 C 26.898438 205.976562 27.222656 208.601562 27.613281 211.21875 C 28 213.832031 28.453125 216.4375 28.96875 219.035156 C 29.484375 221.628906 30.0625 224.207031 30.707031 226.773438 C 31.347656 229.339844 32.054688 231.890625 32.820312 234.421875 C 33.589844 236.953125 34.417969 239.464844 35.3125 241.953125 C 36.203125 244.445312 37.152344 246.914062 38.167969 249.355469 C 39.179688 251.800781 40.25 254.21875 41.382812 256.609375 C 42.511719 259 43.699219 261.363281 44.949219 263.695312 C 46.195312 266.027344 47.5 268.328125 48.859375 270.597656 C 50.21875 272.867188 51.632812 275.101562 53.101562 277.300781 C 54.574219 279.5 56.09375 281.664062 57.671875 283.789062 C 59.246094 285.914062 60.875 287.996094 62.550781 290.042969 C 64.230469 292.085938 65.957031 294.089844 67.734375 296.050781 C 69.511719 298.007812 71.335938 299.925781 73.203125 301.796875 C 75.074219 303.664062 76.992188 305.488281 78.949219 307.265625 C 80.910156 309.042969 82.914062 310.769531 84.957031 312.449219 C 87.003906 314.125 89.085938 315.753906 91.210938 317.328125 C 93.335938 318.90625 95.5 320.425781 97.699219 321.898438 C 99.898438 323.367188 102.132812 324.78125 104.402344 326.140625 C 106.671875 327.5 108.972656 328.804688 111.304688 330.050781 C 113.636719 331.300781 116 332.488281 118.390625 333.617188 C 120.78125 334.75 123.199219 335.820312 125.644531 336.832031 C 128.085938 337.847656 130.554688 338.796875 133.046875 339.6875 C 135.535156 340.582031 138.046875 341.410156 140.578125 342.179688 C 143.109375 342.945312 145.660156 343.652344 148.226562 344.292969 C 150.792969 344.9375 153.371094 345.515625 155.964844 346.03125 C 158.558594 346.546875 161.167969 347 163.78125 347.386719 C 166.398438 347.777344 169.023438 348.101562 171.65625 348.359375 C 174.289062 348.617188 176.925781 348.8125 179.570312 348.941406 C 182.210938 349.074219 184.855469 349.136719 187.5 349.136719 C 190.144531 349.136719 192.789062 349.074219 195.429688 348.941406 C 198.074219 348.8125 200.710938 348.617188 203.34375 348.359375 C 205.976562 348.101562 208.601562 347.777344 211.21875 347.386719 C 213.832031 347 216.441406 346.546875 219.035156 346.03125 C 221.628906 345.515625 224.207031 344.9375 226.773438 344.292969 C 229.339844 343.652344 231.890625 342.945312 234.421875 342.179688 C 236.953125 341.410156 239.464844 340.582031 241.953125 339.6875 C 244.445312 338.796875 246.914062 337.847656 249.355469 336.832031 C 251.800781 335.820312 254.21875 334.75 256.609375 333.617188 C 259 332.488281 261.363281 331.300781 263.695312 330.050781 C 266.027344 328.804688 268.328125 327.5 270.597656 326.140625 C 272.867188 324.78125 275.101562 323.367188 277.300781 321.898438 C 279.5 320.425781 281.664062 318.90625 283.789062 317.328125 C 285.914062 315.753906 287.996094 314.125 290.042969 312.449219 C 292.085938 310.769531 294.089844 309.042969 296.050781 307.265625 C 298.007812 305.488281 299.925781 303.664062 301.796875 301.796875 C 303.664062 299.925781 305.488281 298.007812 307.265625 296.050781 C 309.042969 294.089844 310.769531 292.085938 312.449219 290.042969 C 314.125 287.996094 315.753906 285.914062 317.328125 283.789062 C 318.90625 281.664062 320.425781 279.5 321.898438 277.300781 C 323.367188 275.101562 324.78125 272.867188 326.140625 270.597656 C 327.5 268.328125 328.804688 266.027344 330.050781 263.695312 C 331.300781 261.363281 332.488281 259 333.617188 256.609375 C 334.75 254.21875 335.820312 251.800781 336.832031 249.355469 C 337.847656 246.914062 338.796875 244.445312 339.6875 241.953125 C 340.582031 239.464844 341.410156 236.953125 342.179688 234.421875 C 342.945312 231.890625 343.652344 229.339844 344.292969 226.773438 C 344.9375 224.207031 345.515625 221.628906 346.03125 219.035156 C 346.546875 216.4375 347 213.832031 347.386719 211.21875 C 347.777344 208.601562 348.101562 205.976562 348.359375 203.34375 C 348.617188 200.710938 348.8125 198.074219 348.941406 195.429688 C 349.074219 192.789062 349.136719 190.144531 349.136719 187.5 C 349.136719 184.855469 349.066406 182.210938 348.933594 179.570312 C 348.800781 176.929688 348.605469 174.292969 348.34375 171.664062 C 348.082031 169.03125 347.753906 166.40625 347.363281 163.792969 C 346.972656 161.175781 346.519531 158.570312 346.003906 155.980469 C 345.484375 153.386719 344.902344 150.804688 344.257812 148.242188 C 343.613281 145.675781 342.90625 143.128906 342.136719 140.597656 C 341.367188 138.070312 340.535156 135.558594 339.644531 133.070312 C 338.75 130.582031 337.796875 128.113281 336.785156 125.671875 C 335.773438 123.230469 334.699219 120.8125 333.566406 118.421875 C 332.4375 116.03125 331.246094 113.671875 330 111.339844 C 328.75 109.007812 327.445312 106.707031 326.085938 104.441406 C 324.726562 102.171875 323.3125 99.941406 321.839844 97.742188 C 320.371094 95.542969 318.847656 93.382812 317.273438 91.257812 C 315.695312 89.136719 314.070312 87.050781 312.390625 85.007812 C 310.714844 82.960938 308.988281 80.960938 307.210938 79 C 305.433594 77.042969 303.613281 75.128906 301.742188 73.257812 C 299.871094 71.386719 297.957031 69.566406 296 67.789062 C 294.039062 66.011719 292.035156 64.285156 289.992188 62.609375 C 287.949219 60.929688 285.863281 59.304688 283.742188 57.726562 C 281.617188 56.152344 279.457031 54.628906 277.257812 53.160156 C 275.058594 51.6875 272.828125 50.273438 270.558594 48.914062 C 268.292969 47.554688 265.992188 46.25 263.660156 45 C 261.328125 43.753906 258.96875 42.5625 256.578125 41.433594 C 254.1875 40.300781 251.769531 39.226562 249.328125 38.214844 C 246.886719 37.203125 244.417969 36.25 241.929688 35.355469 C 239.441406 34.464844 236.929688 33.632812 234.402344 32.863281 C 231.871094 32.09375 229.324219 31.386719 226.757812 30.742188 C 224.195312 30.097656 221.613281 29.515625 219.019531 28.996094 C 216.429688 28.480469 213.824219 28.027344 211.207031 27.636719 C 208.59375 27.246094 205.96875 26.917969 203.335938 26.65625 C 200.707031 26.394531 198.070312 26.199219 195.429688 26.066406 C 192.789062 25.933594 190.144531 25.863281 187.5 25.863281 Z M 187.5 336.207031 C 185.066406 336.207031 182.632812 336.148438 180.203125 336.027344 C 177.773438 335.910156 175.347656 335.730469 172.925781 335.492188 C 170.503906 335.253906 168.085938 334.953125 165.679688 334.597656 C 163.273438 334.238281 160.875 333.824219 158.488281 333.347656 C 156.101562 332.875 153.726562 332.339844 151.367188 331.75 C 149.007812 331.160156 146.660156 330.511719 144.332031 329.804688 C 142.003906 329.097656 139.695312 328.332031 137.402344 327.515625 C 135.109375 326.695312 132.839844 325.820312 130.59375 324.886719 C 128.34375 323.957031 126.121094 322.96875 123.917969 321.929688 C 121.71875 320.890625 119.546875 319.796875 117.398438 318.648438 C 115.253906 317.5 113.136719 316.300781 111.050781 315.050781 C 108.960938 313.800781 106.90625 312.496094 104.882812 311.144531 C 102.859375 309.792969 100.871094 308.390625 98.914062 306.941406 C 96.960938 305.492188 95.042969 303.996094 93.160156 302.453125 C 91.28125 300.90625 89.4375 299.320312 87.632812 297.683594 C 85.832031 296.050781 84.070312 294.371094 82.347656 292.652344 C 80.628906 290.929688 78.949219 289.167969 77.316406 287.367188 C 75.679688 285.5625 74.09375 283.71875 72.546875 281.839844 C 71.003906 279.957031 69.507812 278.039062 68.058594 276.085938 C 66.609375 274.128906 65.207031 272.140625 63.855469 270.117188 C 62.503906 268.09375 61.199219 266.039062 59.949219 263.949219 C 58.699219 261.863281 57.5 259.746094 56.351562 257.601562 C 55.203125 255.453125 54.109375 253.28125 53.070312 251.082031 C 52.03125 248.878906 51.042969 246.65625 50.113281 244.40625 C 49.179688 242.160156 48.304688 239.890625 47.484375 237.597656 C 46.664062 235.304688 45.902344 232.996094 45.195312 230.667969 C 44.488281 228.339844 43.839844 225.992188 43.25 223.632812 C 42.660156 221.273438 42.125 218.898438 41.652344 216.511719 C 41.175781 214.125 40.757812 211.726562 40.402344 209.320312 C 40.046875 206.914062 39.746094 204.496094 39.507812 202.074219 C 39.269531 199.652344 39.089844 197.226562 38.972656 194.796875 C 38.851562 192.367188 38.792969 189.933594 38.792969 187.5 C 38.792969 185.066406 38.851562 182.632812 38.972656 180.203125 C 39.089844 177.773438 39.269531 175.347656 39.507812 172.925781 C 39.746094 170.503906 40.046875 168.085938 40.402344 165.679688 C 40.757812 163.273438 41.175781 160.875 41.652344 158.488281 C 42.125 156.101562 42.660156 153.726562 43.25 151.367188 C 43.839844 149.007812 44.488281 146.660156 45.195312 144.332031 C 45.902344 142.003906 46.664062 139.695312 47.484375 137.402344 C 48.304688 135.109375 49.179688 132.839844 50.113281 130.59375 C 51.042969 128.34375 52.03125 126.121094 53.070312 123.917969 C 54.109375 121.71875 55.203125 119.546875 56.351562 117.398438 C 57.5 115.253906 58.699219 113.136719 59.949219 111.050781 C 61.199219 108.960938 62.503906 106.90625 63.855469 104.882812 C 65.207031 102.859375 66.609375 100.871094 68.058594 98.914062 C 69.507812 96.960938 71.003906 95.042969 72.546875 93.160156 C 74.09375 91.28125 75.679688 89.4375 77.316406 87.632812 C 78.949219 85.832031 80.628906 84.070312 82.347656 82.347656 C 84.070312 80.628906 85.832031 78.949219 87.632812 77.316406 C 89.4375 75.679688 91.28125 74.09375 93.160156 72.546875 C 95.042969 71.003906 96.960938 69.507812 98.914062 68.058594 C 100.871094 66.609375 102.859375 65.207031 104.882812 63.855469 C 106.90625 62.503906 108.960938 61.199219 111.050781 59.949219 C 113.136719 58.699219 115.253906 57.5 117.398438 56.351562 C 119.546875 55.203125 121.71875 54.109375 123.917969 53.070312 C 126.121094 52.03125 128.34375 51.042969 130.59375 50.113281 C 132.839844 49.179688 135.109375 48.304688 137.402344 47.484375 C 139.695312 46.664062 142.003906 45.902344 144.332031 45.195312 C 146.660156 44.488281 149.007812 43.839844 151.367188 43.25 C 153.726562 42.660156 156.101562 42.125 158.488281 41.652344 C 160.875 41.175781 163.273438 40.757812 165.679688 40.402344 C 168.085938 40.046875 170.503906 39.746094 172.925781 39.507812 C 175.347656 39.269531 177.773438 39.089844 180.203125 38.972656 C 182.632812 38.851562 185.066406 38.792969 187.5 38.792969 C 189.933594 38.792969 192.367188 38.851562 194.796875 38.972656 C 197.226562 39.089844 199.652344 39.269531 202.074219 39.507812 C 204.496094 39.746094 206.914062 40.046875 209.320312 40.402344 C 211.726562 40.757812 214.125 41.175781 216.511719 41.652344 C 218.898438 42.125 221.273438 42.660156 223.632812 43.25 C 225.992188 43.839844 228.339844 44.488281 230.667969 45.195312 C 232.996094 45.902344 235.304688 46.664062 237.597656 47.484375 C 239.890625 48.304688 242.160156 49.179688 244.40625 50.113281 C 246.65625 51.042969 248.878906 52.03125 251.082031 53.070312 C 253.28125 54.109375 255.453125 55.203125 257.601562 56.351562 C 259.746094 57.5 261.863281 58.699219 263.949219 59.949219 C 266.039062 61.199219 268.09375 62.503906 270.117188 63.855469 C 272.140625 65.207031 274.128906 66.609375 276.085938 68.058594 C 278.039062 69.507812 279.957031 71.003906 281.839844 72.546875 C 283.71875 74.09375 285.5625 75.679688 287.367188 77.316406 C 289.167969 78.949219 290.929688 80.628906 292.652344 82.347656 C 294.371094 84.070312 296.050781 85.832031 297.683594 87.632812 C 299.320312 89.4375 300.90625 91.28125 302.453125 93.160156 C 303.996094 95.042969 305.492188 96.960938 306.941406 98.914062 C 308.390625 100.871094 309.792969 102.859375 311.144531 104.882812 C 312.496094 106.90625 313.800781 108.960938 315.050781 111.050781 C 316.300781 113.136719 317.5 115.253906 318.648438 117.398438 C 319.796875 119.546875 320.890625 121.71875 321.929688 123.917969 C 322.96875 126.121094 323.957031 128.34375 324.886719 130.59375 C 325.820312 132.839844 326.695312 135.109375 327.515625 137.402344 C 328.332031 139.695312 329.097656 142.003906 329.804688 144.332031 C 330.511719 146.660156 331.160156 149.007812 331.75 151.367188 C 332.339844 153.726562 332.875 156.101562 333.347656 158.488281 C 333.824219 160.875 334.238281 163.273438 334.597656 165.679688 C 334.953125 168.085938 335.253906 170.503906 335.492188 172.925781 C 335.730469 175.347656 335.910156 177.773438 336.027344 180.203125 C 336.148438 182.632812 336.207031 185.066406 336.207031 187.5 C 336.203125 189.933594 336.140625 192.363281 336.019531 194.792969 C 335.898438 197.222656 335.714844 199.648438 335.476562 202.070312 C 335.234375 204.492188 334.933594 206.90625 334.574219 209.3125 C 334.214844 211.71875 333.800781 214.113281 333.320312 216.5 C 332.84375 218.886719 332.3125 221.257812 331.71875 223.617188 C 331.125 225.976562 330.472656 228.320312 329.765625 230.648438 C 329.058594 232.976562 328.292969 235.285156 327.472656 237.574219 C 326.652344 239.867188 325.777344 242.136719 324.84375 244.382812 C 323.910156 246.628906 322.925781 248.851562 321.882812 251.050781 C 320.839844 253.25 319.746094 255.421875 318.597656 257.566406 C 317.453125 259.710938 316.25 261.828125 315 263.914062 C 313.75 266 312.445312 268.054688 311.09375 270.078125 C 309.742188 272.101562 308.339844 274.089844 306.890625 276.042969 C 305.441406 277.996094 303.945312 279.914062 302.402344 281.792969 C 300.859375 283.675781 299.269531 285.515625 297.636719 287.320312 C 296 289.121094 294.324219 290.882812 292.601562 292.601562 C 290.882812 294.324219 289.121094 296 287.320312 297.636719 C 285.515625 299.269531 283.675781 300.859375 281.792969 302.402344 C 279.914062 303.945312 277.996094 305.441406 276.042969 306.890625 C 274.089844 308.339844 272.101562 309.742188 270.078125 311.09375 C 268.054688 312.445312 266 313.75 263.914062 315 C 261.828125 316.25 259.710938 317.453125 257.566406 318.597656 C 255.421875 319.746094 253.25 320.839844 251.050781 321.882812 C 248.851562 322.925781 246.628906 323.910156 244.382812 324.84375 C 242.136719 325.777344 239.867188 326.652344 237.574219 327.472656 C 235.285156 328.292969 232.976562 329.058594 230.648438 329.765625 C 228.320312 330.472656 225.976562 331.125 223.617188 331.71875 C 221.257812 332.3125 218.886719 332.84375 216.5 333.320312 C 214.113281 333.800781 211.71875 334.214844 209.3125 334.574219 C 206.90625 334.933594 204.492188 335.234375 202.070312 335.476562 C 199.648438 335.714844 197.222656 335.898438 194.792969 336.019531 C 192.363281 336.140625 189.933594 336.203125 187.5 336.207031 Z M 187.5 336.207031 " fill-opacity="1" fill-rule="nonzero"/><path fill="#003348" d="M 187.5 0 C 184.429688 0 181.363281 0.0742188 178.300781 0.226562 C 175.234375 0.375 172.175781 0.601562 169.121094 0.902344 C 166.066406 1.203125 163.023438 1.578125 159.988281 2.03125 C 156.953125 2.480469 153.929688 3.003906 150.921875 3.601562 C 147.910156 4.203125 144.917969 4.875 141.941406 5.617188 C 138.964844 6.363281 136.007812 7.183594 133.070312 8.074219 C 130.136719 8.964844 127.222656 9.925781 124.332031 10.960938 C 121.445312 11.996094 118.582031 13.097656 115.746094 14.273438 C 112.910156 15.445312 110.105469 16.691406 107.332031 18.003906 C 104.558594 19.3125 101.820312 20.691406 99.113281 22.140625 C 96.40625 23.585938 93.738281 25.097656 91.105469 26.675781 C 88.472656 28.253906 85.882812 29.894531 83.332031 31.597656 C 80.777344 33.304688 78.269531 35.070312 75.804688 36.898438 C 73.339844 38.726562 70.921875 40.613281 68.550781 42.558594 C 66.179688 44.507812 63.855469 46.511719 61.582031 48.570312 C 59.308594 50.632812 57.085938 52.746094 54.917969 54.917969 C 52.746094 57.085938 50.632812 59.308594 48.570312 61.582031 C 46.511719 63.855469 44.507812 66.179688 42.558594 68.550781 C 40.613281 70.921875 38.726562 73.339844 36.898438 75.804688 C 35.070312 78.269531 33.304688 80.777344 31.597656 83.332031 C 29.894531 85.882812 28.253906 88.472656 26.675781 91.105469 C 25.097656 93.738281 23.585938 96.40625 22.140625 99.113281 C 20.691406 101.820312 19.3125 104.558594 18.003906 107.332031 C 16.691406 110.105469 15.445312 112.910156 14.273438 115.746094 C 13.097656 118.582031 11.996094 121.445312 10.960938 124.332031 C 9.925781 127.222656 8.964844 130.136719 8.074219 133.070312 C 7.183594 136.007812 6.363281 138.964844 5.617188 141.941406 C 4.875 144.917969 4.203125 147.910156 3.601562 150.921875 C 3.003906 153.929688 2.480469 156.953125 2.03125 159.988281 C 1.578125 163.023438 1.203125 166.066406 0.902344 169.121094 C 0.601562 172.175781 0.375 175.234375 0.226562 178.300781 C 0.0742188 181.363281 0 184.429688 0 187.5 C 0 190.570312 0.0742188 193.636719 0.226562 196.699219 C 0.375 199.765625 0.601562 202.824219 0.902344 205.878906 C 1.203125 208.933594 1.578125 211.976562 2.03125 215.011719 C 2.480469 218.046875 3.003906 221.070312 3.601562 224.078125 C 4.203125 227.089844 4.875 230.082031 5.617188 233.058594 C 6.363281 236.035156 7.183594 238.992188 8.074219 241.929688 C 8.964844 244.863281 9.925781 247.777344 10.960938 250.667969 C 11.996094 253.554688 13.097656 256.417969 14.273438 259.253906 C 15.445312 262.089844 16.691406 264.894531 18.003906 267.667969 C 19.3125 270.441406 20.691406 273.179688 22.140625 275.886719 C 23.585938 278.59375 25.097656 281.261719 26.675781 283.894531 C 28.253906 286.527344 29.894531 289.117188 31.597656 291.667969 C 33.304688 294.222656 35.070312 296.730469 36.898438 299.195312 C 38.726562 301.660156 40.613281 304.078125 42.558594 306.449219 C 44.507812 308.820312 46.511719 311.144531 48.570312 313.417969 C 50.632812 315.691406 52.746094 317.914062 54.917969 320.082031 C 57.085938 322.253906 59.308594 324.367188 61.582031 326.429688 C 63.855469 328.488281 66.179688 330.492188 68.550781 332.4375 C 70.921875 334.386719 73.339844 336.273438 75.804688 338.101562 C 78.269531 339.929688 80.777344 341.695312 83.332031 343.402344 C 85.882812 345.105469 88.472656 346.746094 91.105469 348.324219 C 93.738281 349.902344 96.40625 351.414062 99.113281 352.859375 C 101.820312 354.308594 104.558594 355.6875 107.332031 356.996094 C 110.105469 358.308594 112.910156 359.554688 115.746094 360.726562 C 118.582031 361.902344 121.445312 363.003906 124.332031 364.039062 C 127.222656 365.074219 130.136719 366.035156 133.070312 366.925781 C 136.007812 367.816406 138.964844 368.636719 141.941406 369.378906 C 144.917969 370.125 147.910156 370.796875 150.921875 371.398438 C 153.929688 371.996094 156.953125 372.519531 159.988281 372.96875 C 163.023438 373.421875 166.066406 373.796875 169.121094 374.097656 C 172.175781 374.398438 175.234375 374.625 178.300781 374.773438 C 181.363281 374.925781 184.429688 375 187.5 375 C 190.570312 375 193.636719 374.925781 196.699219 374.773438 C 199.765625 374.625 202.824219 374.398438 205.878906 374.097656 C 208.933594 373.796875 211.976562 373.421875 215.011719 372.96875 C 218.046875 372.519531 221.070312 371.996094 224.078125 371.398438 C 227.089844 370.796875 230.082031 370.125 233.058594 369.378906 C 236.035156 368.636719 238.992188 367.816406 241.929688 366.925781 C 244.863281 366.035156 247.777344 365.074219 250.667969 364.039062 C 253.554688 363.003906 256.417969 361.902344 259.253906 360.726562 C 262.089844 359.554688 264.894531 358.308594 267.667969 356.996094 C 270.441406 355.6875 273.179688 354.308594 275.886719 352.859375 C 278.59375 351.414062 281.261719 349.902344 283.894531 348.324219 C 286.527344 346.746094 289.117188 345.105469 291.667969 343.402344 C 294.222656 341.695312 296.730469 339.929688 299.195312 338.101562 C 301.660156 336.273438 304.078125 334.386719 306.449219 332.4375 C 308.820312 330.492188 311.144531 328.488281 313.417969 326.429688 C 315.691406 324.367188 317.914062 322.253906 320.082031 320.082031 C 322.253906 317.914062 324.367188 315.691406 326.429688 313.417969 C 328.488281 311.144531 330.492188 308.820312 332.4375 306.449219 C 334.386719 304.078125 336.273438 301.660156 338.101562 299.195312 C 339.929688 296.730469 341.695312 294.222656 343.402344 291.667969 C 345.105469 289.117188 346.746094 286.527344 348.324219 283.894531 C 349.902344 281.261719 351.414062 278.59375 352.859375 275.886719 C 354.308594 273.179688 355.6875 270.441406 356.996094 267.667969 C 358.308594 264.894531 359.554688 262.089844 360.726562 259.253906 C 361.902344 256.417969 363.003906 253.554688 364.039062 250.667969 C 365.074219 247.777344 366.035156 244.863281 366.925781 241.929688 C 367.816406 238.992188 368.636719 236.035156 369.378906 233.058594 C 370.125 230.082031 370.796875 227.089844 371.398438 224.078125 C 371.996094 221.070312 372.519531 218.046875 372.96875 215.011719 C 373.421875 211.976562 373.796875 208.933594 374.097656 205.878906 C 374.398438 202.824219 374.625 199.765625 374.773438 196.699219 C 374.925781 193.636719 375 190.570312 375 187.5 C 374.996094 184.433594 374.917969 181.367188 374.765625 178.304688 C 374.609375 175.238281 374.382812 172.179688 374.078125 169.128906 C 373.773438 166.074219 373.394531 163.03125 372.941406 160 C 372.488281 156.964844 371.960938 153.945312 371.363281 150.933594 C 370.761719 147.925781 370.085938 144.9375 369.339844 141.960938 C 368.589844 138.984375 367.769531 136.03125 366.878906 133.09375 C 365.984375 130.160156 365.019531 127.25 363.984375 124.363281 C 362.949219 121.472656 361.84375 118.613281 360.667969 115.78125 C 359.496094 112.945312 358.25 110.144531 356.9375 107.371094 C 355.625 104.597656 354.242188 101.859375 352.796875 99.15625 C 351.347656 96.449219 349.835938 93.785156 348.257812 91.152344 C 346.679688 88.523438 345.039062 85.933594 343.335938 83.382812 C 341.628906 80.832031 339.863281 78.324219 338.035156 75.859375 C 336.207031 73.398438 334.320312 70.980469 332.375 68.609375 C 330.425781 66.238281 328.421875 63.917969 326.363281 61.644531 C 324.304688 59.371094 322.1875 57.148438 320.019531 54.980469 C 317.851562 52.8125 315.628906 50.695312 313.355469 48.636719 C 311.082031 46.578125 308.761719 44.574219 306.390625 42.625 C 304.019531 40.679688 301.601562 38.792969 299.140625 36.964844 C 296.675781 35.136719 294.167969 33.371094 291.617188 31.664062 C 289.066406 29.960938 286.476562 28.320312 283.847656 26.742188 C 281.214844 25.164062 278.550781 23.652344 275.84375 22.203125 C 273.140625 20.757812 270.402344 19.375 267.628906 18.0625 C 264.855469 16.75 262.054688 15.503906 259.21875 14.332031 C 256.386719 13.15625 253.527344 12.050781 250.636719 11.015625 C 247.75 9.980469 244.839844 9.015625 241.90625 8.121094 C 238.96875 7.230469 236.015625 6.410156 233.039062 5.660156 C 230.0625 4.914062 227.074219 4.238281 224.066406 3.636719 C 221.054688 3.039062 218.035156 2.511719 215 2.058594 C 211.96875 1.605469 208.925781 1.226562 205.871094 0.921875 C 202.820312 0.617188 199.761719 0.390625 196.695312 0.234375 C 193.632812 0.0820312 190.566406 0.00390625 187.5 0 Z M 187.5 362.070312 C 184.644531 362.070312 181.789062 362 178.933594 361.859375 C 176.082031 361.71875 173.234375 361.507812 170.390625 361.226562 C 167.546875 360.949219 164.710938 360.597656 161.886719 360.179688 C 159.058594 359.761719 156.246094 359.273438 153.441406 358.714844 C 150.640625 358.15625 147.855469 357.53125 145.082031 356.835938 C 142.3125 356.144531 139.558594 355.382812 136.824219 354.550781 C 134.089844 353.722656 131.378906 352.828125 128.691406 351.863281 C 126 350.902344 123.335938 349.875 120.695312 348.78125 C 118.054688 347.6875 115.445312 346.53125 112.863281 345.308594 C 110.28125 344.085938 107.726562 342.804688 105.207031 341.457031 C 102.6875 340.109375 100.203125 338.703125 97.753906 337.234375 C 95.304688 335.765625 92.890625 334.234375 90.515625 332.648438 C 88.140625 331.0625 85.804688 329.417969 83.507812 327.714844 C 81.214844 326.011719 78.964844 324.257812 76.753906 322.445312 C 74.546875 320.632812 72.382812 318.765625 70.265625 316.847656 C 68.148438 314.929688 66.082031 312.960938 64.0625 310.9375 C 62.039062 308.917969 60.070312 306.851562 58.152344 304.734375 C 56.234375 302.617188 54.367188 300.453125 52.554688 298.246094 C 50.742188 296.035156 48.988281 293.785156 47.285156 291.492188 C 45.582031 289.195312 43.9375 286.859375 42.351562 284.484375 C 40.765625 282.109375 39.234375 279.695312 37.765625 277.246094 C 36.296875 274.796875 34.890625 272.3125 33.542969 269.792969 C 32.195312 267.273438 30.914062 264.71875 29.691406 262.136719 C 28.46875 259.554688 27.3125 256.945312 26.21875 254.304688 C 25.125 251.664062 24.097656 249 23.136719 246.308594 C 22.171875 243.621094 21.277344 240.910156 20.449219 238.175781 C 19.617188 235.441406 18.855469 232.6875 18.164062 229.917969 C 17.46875 227.144531 16.84375 224.359375 16.285156 221.558594 C 15.726562 218.753906 15.238281 215.941406 14.820312 213.113281 C 14.402344 210.289062 14.050781 207.453125 13.773438 204.609375 C 13.492188 201.765625 13.28125 198.917969 13.140625 196.066406 C 13 193.210938 12.929688 190.355469 12.929688 187.5 C 12.929688 184.644531 13 181.789062 13.140625 178.933594 C 13.28125 176.082031 13.492188 173.234375 13.773438 170.390625 C 14.050781 167.546875 14.402344 164.710938 14.820312 161.886719 C 15.238281 159.058594 15.726562 156.246094 16.285156 153.441406 C 16.84375 150.640625 17.46875 147.855469 18.164062 145.082031 C 18.855469 142.3125 19.617188 139.558594 20.449219 136.824219 C 21.277344 134.089844 22.171875 131.378906 23.136719 128.691406 C 24.097656 126 25.125 123.335938 26.21875 120.695312 C 27.3125 118.054688 28.46875 115.445312 29.691406 112.863281 C 30.914062 110.28125 32.195312 107.726562 33.542969 105.207031 C 34.890625 102.6875 36.296875 100.203125 37.765625 97.753906 C 39.234375 95.304688 40.765625 92.890625 42.351562 90.515625 C 43.9375 88.140625 45.582031 85.804688 47.285156 83.507812 C 48.988281 81.214844 50.742188 78.964844 52.554688 76.753906 C 54.367188 74.546875 56.234375 72.382812 58.152344 70.265625 C 60.070312 68.148438 62.039062 66.082031 64.0625 64.0625 C 66.082031 62.039062 68.148438 60.070312 70.265625 58.152344 C 72.382812 56.234375 74.546875 54.367188 76.753906 52.554688 C 78.964844 50.742188 81.214844 48.988281 83.507812 47.285156 C 85.804688 45.582031 88.140625 43.9375 90.515625 42.351562 C 92.890625 40.765625 95.304688 39.234375 97.753906 37.765625 C 100.203125 36.296875 102.6875 34.890625 105.207031 33.542969 C 107.726562 32.195312 110.28125 30.914062 112.863281 29.691406 C 115.445312 28.46875 118.054688 27.3125 120.695312 26.21875 C 123.335938 25.125 126 24.097656 128.691406 23.136719 C 131.378906 22.171875 134.089844 21.277344 136.824219 20.449219 C 139.558594 19.617188 142.3125 18.855469 145.082031 18.164062 C 147.855469 17.46875 150.640625 16.84375 153.441406 16.285156 C 156.246094 15.726562 159.058594 15.238281 161.886719 14.820312 C 164.710938 14.402344 167.546875 14.050781 170.390625 13.773438 C 173.234375 13.492188 176.082031 13.28125 178.933594 13.140625 C 181.789062 13 184.644531 12.929688 187.5 12.929688 C 190.355469 12.929688 193.210938 13 196.066406 13.140625 C 198.917969 13.28125 201.765625 13.492188 204.609375 13.773438 C 207.453125 14.050781 210.289062 14.402344 213.113281 14.820312 C 215.941406 15.238281 218.753906 15.726562 221.558594 16.285156 C 224.359375 16.84375 227.144531 17.46875 229.917969 18.164062 C 232.6875 18.855469 235.441406 19.617188 238.175781 20.449219 C 240.910156 21.277344 243.621094 22.171875 246.308594 23.136719 C 249 24.097656 251.664062 25.125 254.304688 26.21875 C 256.945312 27.3125 259.554688 28.46875 262.136719 29.691406 C 264.71875 30.914062 267.273438 32.195312 269.792969 33.542969 C 272.3125 34.890625 274.796875 36.296875 277.246094 37.765625 C 279.695312 39.234375 282.109375 40.765625 284.484375 42.351562 C 286.859375 43.9375 289.195312 45.582031 291.492188 47.285156 C 293.785156 48.988281 296.035156 50.742188 298.246094 52.554688 C 300.453125 54.367188 302.617188 56.234375 304.734375 58.152344 C 306.851562 60.070312 308.917969 62.039062 310.9375 64.0625 C 312.960938 66.082031 314.929688 68.148438 316.847656 70.265625 C 318.765625 72.382812 320.632812 74.546875 322.445312 76.753906 C 324.257812 78.964844 326.011719 81.214844 327.714844 83.507812 C 329.417969 85.804688 331.0625 88.140625 332.648438 90.515625 C 334.234375 92.890625 335.765625 95.304688 337.234375 97.753906 C 338.703125 100.203125 340.109375 102.6875 341.457031 105.207031 C 342.804688 107.726562 344.085938 110.28125 345.308594 112.863281 C 346.53125 115.445312 347.6875 118.054688 348.78125 120.695312 C 349.875 123.335938 350.902344 126 351.863281 128.691406 C 352.828125 131.378906 353.722656 134.089844 354.550781 136.824219 C 355.382812 139.558594 356.144531 142.3125 356.835938 145.082031 C 357.53125 147.855469 358.15625 150.640625 358.714844 153.441406 C 359.273438 156.246094 359.761719 159.058594 360.179688 161.886719 C 360.597656 164.710938 360.949219 167.546875 361.226562 170.390625 C 361.507812 173.234375 361.71875 176.082031 361.859375 178.933594 C 362 181.789062 362.070312 184.644531 362.070312 187.5 C 362.066406 190.355469 361.992188 193.210938 361.847656 196.0625 C 361.707031 198.914062 361.492188 201.761719 361.210938 204.605469 C 360.925781 207.445312 360.574219 210.28125 360.152344 213.105469 C 359.730469 215.929688 359.242188 218.742188 358.683594 221.542969 C 358.121094 224.34375 357.496094 227.128906 356.796875 229.898438 C 356.101562 232.667969 355.339844 235.421875 354.507812 238.152344 C 353.675781 240.886719 352.777344 243.59375 351.816406 246.285156 C 350.851562 248.972656 349.820312 251.636719 348.726562 254.273438 C 347.632812 256.910156 346.476562 259.519531 345.253906 262.101562 C 344.03125 264.683594 342.746094 267.234375 341.398438 269.75 C 340.050781 272.269531 338.640625 274.753906 337.171875 277.203125 C 335.703125 279.652344 334.175781 282.0625 332.585938 284.4375 C 331 286.8125 329.355469 289.148438 327.652344 291.441406 C 325.953125 293.734375 324.195312 295.984375 322.382812 298.191406 C 320.570312 300.398438 318.707031 302.5625 316.789062 304.675781 C 314.867188 306.792969 312.898438 308.859375 310.878906 310.878906 C 308.859375 312.898438 306.792969 314.867188 304.675781 316.789062 C 302.5625 318.707031 300.398438 320.570312 298.191406 322.382812 C 295.984375 324.195312 293.734375 325.953125 291.441406 327.652344 C 289.148438 329.355469 286.8125 331 284.4375 332.585938 C 282.0625 334.175781 279.652344 335.703125 277.203125 337.171875 C 274.753906 338.640625 272.269531 340.050781 269.75 341.398438 C 267.234375 342.746094 264.683594 344.03125 262.101562 345.253906 C 259.519531 346.476562 256.910156 347.632812 254.273438 348.726562 C 251.636719 349.820312 248.972656 350.851562 246.285156 351.816406 C 243.59375 352.777344 240.886719 353.675781 238.152344 354.507812 C 235.421875 355.339844 232.667969 356.101562 229.898438 356.796875 C 227.128906 357.496094 224.34375 358.121094 221.542969 358.683594 C 218.742188 359.242188 215.929688 359.730469 213.105469 360.152344 C 210.28125 360.574219 207.445312 360.925781 204.605469 361.210938 C 201.761719 361.492188 198.914062 361.707031 196.0625 361.847656 C 193.210938 361.992188 190.355469 362.066406 187.5 362.070312 Z M 187.5 362.070312 " fill-opacity="1" fill-rule="nonzero"/><path fill="#003348" d="M 246.851562 181.558594 C 245.1875 180.804688 244.269531 179.21875 243.363281 176.386719 C 243.113281 175.328125 243.09375 174.265625 243.3125 173.199219 C 243.527344 172.132812 243.960938 171.160156 244.605469 170.28125 C 245.023438 169.835938 245.371094 169.339844 245.648438 168.792969 C 245.925781 168.246094 246.121094 167.675781 246.234375 167.074219 C 246.351562 166.472656 246.378906 165.867188 246.320312 165.257812 C 246.265625 164.648438 246.125 164.058594 245.898438 163.488281 C 245.675781 162.921875 245.375 162.394531 245 161.910156 C 244.625 161.425781 244.191406 161 243.699219 160.640625 C 243.203125 160.28125 242.671875 159.996094 242.09375 159.785156 C 241.519531 159.574219 240.925781 159.449219 240.316406 159.410156 C 239.253906 159.199219 238.261719 158.804688 237.34375 158.222656 C 236.429688 157.640625 235.648438 156.914062 235.007812 156.039062 C 234.351562 155.078125 233.914062 154.03125 233.6875 152.890625 C 233.464844 151.75 233.472656 150.613281 233.710938 149.476562 C 233.910156 148.902344 234.023438 148.3125 234.054688 147.707031 C 234.089844 147.101562 234.035156 146.503906 233.898438 145.914062 C 233.761719 145.320312 233.546875 144.761719 233.253906 144.230469 C 232.957031 143.699219 232.597656 143.222656 232.167969 142.792969 C 231.738281 142.363281 231.257812 142.003906 230.726562 141.710938 C 230.195312 141.417969 229.632812 141.203125 229.042969 141.066406 C 228.449219 140.933594 227.851562 140.878906 227.246094 140.914062 C 226.640625 140.945312 226.050781 141.0625 225.476562 141.261719 C 224.355469 141.535156 223.222656 141.5625 222.085938 141.347656 C 220.953125 141.128906 219.910156 140.6875 218.964844 140.023438 C 218.070312 139.359375 217.332031 138.546875 216.753906 137.59375 C 216.179688 136.636719 215.800781 135.609375 215.628906 134.507812 C 215.574219 133.910156 215.441406 133.332031 215.226562 132.769531 C 215.011719 132.210938 214.726562 131.691406 214.367188 131.210938 C 214.007812 130.730469 213.589844 130.308594 213.113281 129.945312 C 212.636719 129.582031 212.117188 129.289062 211.5625 129.070312 C 211.003906 128.847656 210.425781 128.710938 209.828125 128.648438 C 209.234375 128.589844 208.640625 128.613281 208.050781 128.71875 C 207.457031 128.824219 206.894531 129.007812 206.355469 129.269531 C 205.816406 129.535156 205.324219 129.863281 204.875 130.265625 C 203.96875 130.933594 202.960938 131.386719 201.855469 131.621094 C 200.75 131.855469 199.648438 131.851562 198.542969 131.609375 C 195.765625 130.707031 194.183594 129.796875 193.433594 128.148438 C 193.183594 127.589844 192.859375 127.078125 192.460938 126.613281 C 192.0625 126.148438 191.605469 125.746094 191.09375 125.410156 C 190.582031 125.074219 190.035156 124.816406 189.449219 124.636719 C 188.863281 124.457031 188.265625 124.363281 187.652344 124.355469 C 187.042969 124.355469 186.441406 124.441406 185.855469 124.605469 C 185.269531 124.773438 184.714844 125.015625 184.195312 125.332031 C 183.671875 125.652344 183.207031 126.035156 182.789062 126.480469 C 182.375 126.929688 182.027344 127.421875 181.746094 127.964844 C 181.140625 128.875 180.390625 129.640625 179.492188 130.269531 C 178.597656 130.894531 177.617188 131.335938 176.554688 131.59375 C 175.441406 131.828125 174.324219 131.84375 173.207031 131.628906 C 172.085938 131.417969 171.054688 130.996094 170.105469 130.363281 C 169.648438 129.949219 169.140625 129.609375 168.585938 129.339844 C 168.03125 129.070312 167.449219 128.882812 166.839844 128.78125 C 166.234375 128.675781 165.621094 128.660156 165.007812 128.734375 C 164.394531 128.804688 163.804688 128.960938 163.238281 129.203125 C 162.667969 129.441406 162.148438 129.757812 161.667969 130.148438 C 161.191406 130.539062 160.777344 130.992188 160.429688 131.5 C 160.082031 132.007812 159.808594 132.558594 159.617188 133.144531 C 159.425781 133.730469 159.320312 134.332031 159.300781 134.949219 C 159.242188 136.789062 158.113281 138.246094 155.804688 140.191406 C 154.835938 140.796875 153.789062 141.1875 152.660156 141.371094 C 151.535156 141.550781 150.414062 141.503906 149.308594 141.230469 C 148.734375 141.050781 148.148438 140.953125 147.550781 140.9375 C 146.949219 140.917969 146.359375 140.984375 145.777344 141.132812 C 145.199219 141.28125 144.648438 141.503906 144.128906 141.804688 C 143.609375 142.105469 143.140625 142.46875 142.722656 142.902344 C 142.308594 143.332031 141.957031 143.8125 141.671875 144.339844 C 141.390625 144.867188 141.183594 145.425781 141.054688 146.011719 C 140.925781 146.597656 140.878906 147.1875 140.917969 147.789062 C 140.953125 148.386719 141.070312 148.96875 141.269531 149.535156 C 141.535156 150.613281 141.570312 151.703125 141.371094 152.796875 C 141.171875 153.890625 140.757812 154.898438 140.128906 155.816406 C 139.515625 156.757812 138.738281 157.535156 137.796875 158.148438 C 136.851562 158.757812 135.824219 159.148438 134.714844 159.320312 C 134.117188 159.355469 133.535156 159.472656 132.96875 159.667969 C 132.402344 159.867188 131.875 160.136719 131.386719 160.480469 C 130.894531 160.824219 130.460938 161.230469 130.082031 161.691406 C 129.703125 162.15625 129.398438 162.664062 129.160156 163.214844 C 128.921875 163.765625 128.765625 164.335938 128.6875 164.929688 C 128.609375 165.527344 128.613281 166.117188 128.699219 166.710938 C 128.789062 167.304688 128.953125 167.875 129.199219 168.421875 C 129.445312 168.964844 129.757812 169.46875 130.144531 169.929688 C 130.804688 170.847656 131.265625 171.863281 131.523438 172.964844 C 131.78125 174.070312 131.816406 175.183594 131.628906 176.300781 C 130.707031 179.066406 129.71875 180.921875 128.058594 181.703125 C 127.503906 181.96875 126.992188 182.304688 126.53125 182.714844 C 126.070312 183.121094 125.675781 183.589844 125.34375 184.109375 C 125.015625 184.632812 124.769531 185.191406 124.601562 185.785156 C 124.429688 186.378906 124.347656 186.984375 124.355469 187.601562 C 124.359375 188.21875 124.449219 188.820312 124.628906 189.414062 C 124.804688 190.003906 125.0625 190.558594 125.398438 191.074219 C 125.734375 191.59375 126.136719 192.054688 126.605469 192.457031 C 127.070312 192.859375 127.585938 193.1875 128.148438 193.441406 C 129.832031 194.203125 130.75 195.804688 131.667969 198.691406 C 131.839844 199.789062 131.804688 200.882812 131.566406 201.96875 C 131.324219 203.054688 130.898438 204.0625 130.28125 204.988281 C 129.882812 205.449219 129.550781 205.957031 129.292969 206.511719 C 129.035156 207.066406 128.859375 207.644531 128.769531 208.25 C 128.675781 208.855469 128.667969 209.460938 128.746094 210.066406 C 128.824219 210.671875 128.984375 211.257812 129.230469 211.816406 C 129.472656 212.378906 129.789062 212.894531 130.179688 213.363281 C 130.570312 213.832031 131.019531 214.242188 131.523438 214.585938 C 132.03125 214.929688 132.574219 215.195312 133.15625 215.382812 C 133.734375 215.574219 134.332031 215.679688 134.941406 215.699219 C 136.738281 215.761719 138.179688 216.863281 140.0625 219.0625 C 140.714844 219.996094 141.144531 221.023438 141.351562 222.140625 C 141.5625 223.261719 141.53125 224.371094 141.261719 225.480469 C 141.066406 226.042969 140.949219 226.625 140.914062 227.222656 C 140.878906 227.824219 140.925781 228.414062 141.058594 229 C 141.1875 229.582031 141.394531 230.140625 141.675781 230.667969 C 141.960938 231.195312 142.3125 231.671875 142.730469 232.105469 C 143.148438 232.535156 143.613281 232.898438 144.132812 233.199219 C 144.652344 233.5 145.203125 233.722656 145.78125 233.867188 C 146.363281 234.015625 146.953125 234.082031 147.550781 234.0625 C 148.148438 234.046875 148.734375 233.949219 149.308594 233.769531 C 150.394531 233.503906 151.488281 233.453125 152.59375 233.625 C 153.699219 233.792969 154.730469 234.164062 155.6875 234.742188 C 158.074219 236.78125 159.203125 238.28125 159.316406 240.265625 C 159.347656 240.871094 159.464844 241.460938 159.664062 242.035156 C 159.863281 242.609375 160.140625 243.144531 160.488281 243.640625 C 160.839844 244.132812 161.25 244.574219 161.726562 244.953125 C 162.199219 245.332031 162.714844 245.636719 163.277344 245.871094 C 163.835938 246.105469 164.417969 246.257812 165.019531 246.328125 C 165.625 246.398438 166.226562 246.382812 166.824219 246.285156 C 167.421875 246.183594 167.996094 246.003906 168.542969 245.742188 C 169.09375 245.484375 169.59375 245.152344 170.046875 244.75 C 171.019531 244.085938 172.078125 243.640625 173.230469 243.414062 C 174.378906 243.183594 175.53125 243.191406 176.679688 243.433594 C 177.71875 243.703125 178.679688 244.148438 179.554688 244.773438 C 180.429688 245.398438 181.167969 246.15625 181.761719 247.054688 C 182.027344 247.59375 182.363281 248.085938 182.769531 248.53125 C 183.171875 248.976562 183.632812 249.359375 184.144531 249.675781 C 184.65625 249.992188 185.199219 250.234375 185.777344 250.398438 C 186.359375 250.5625 186.949219 250.648438 187.550781 250.644531 L 187.664062 250.644531 C 188.277344 250.636719 188.875 250.539062 189.457031 250.359375 C 190.042969 250.179688 190.589844 249.917969 191.101562 249.582031 C 191.613281 249.246094 192.066406 248.847656 192.464844 248.382812 C 192.863281 247.917969 193.1875 247.410156 193.441406 246.851562 C 194.183594 245.214844 195.75 244.304688 198.492188 243.40625 C 199.597656 243.171875 200.707031 243.164062 201.816406 243.375 C 202.929688 243.589844 203.953125 244.007812 204.894531 244.636719 C 205.351562 245.050781 205.859375 245.390625 206.414062 245.660156 C 206.96875 245.929688 207.550781 246.117188 208.160156 246.222656 C 208.765625 246.324219 209.378906 246.339844 209.992188 246.265625 C 210.605469 246.195312 211.195312 246.039062 211.761719 245.796875 C 212.332031 245.558594 212.855469 245.242188 213.332031 244.851562 C 213.808594 244.460938 214.222656 244.007812 214.570312 243.5 C 214.917969 242.992188 215.191406 242.441406 215.382812 241.855469 C 215.574219 241.269531 215.679688 240.667969 215.699219 240.050781 C 215.757812 238.257812 216.863281 236.816406 219.066406 234.929688 C 220 234.285156 221.023438 233.855469 222.140625 233.648438 C 223.253906 233.4375 224.363281 233.464844 225.464844 233.730469 C 226.039062 233.933594 226.628906 234.050781 227.234375 234.085938 C 227.839844 234.121094 228.4375 234.070312 229.03125 233.933594 C 229.621094 233.800781 230.183594 233.589844 230.714844 233.296875 C 231.25 233.003906 231.730469 232.644531 232.160156 232.214844 C 232.589844 231.785156 232.953125 231.308594 233.25 230.777344 C 233.542969 230.246094 233.761719 229.6875 233.898438 229.09375 C 234.035156 228.503906 234.085938 227.90625 234.054688 227.300781 C 234.023438 226.691406 233.910156 226.101562 233.710938 225.53125 C 233.59375 224.988281 233.53125 224.4375 233.523438 223.882812 C 233.515625 223.328125 233.5625 222.777344 233.664062 222.234375 C 233.765625 221.6875 233.921875 221.15625 234.132812 220.644531 C 234.34375 220.128906 234.601562 219.640625 234.910156 219.179688 C 235.21875 218.71875 235.570312 218.292969 235.964844 217.902344 C 236.359375 217.511719 236.789062 217.164062 237.253906 216.859375 C 237.71875 216.554688 238.207031 216.300781 238.722656 216.097656 C 239.238281 215.890625 239.769531 215.738281 240.316406 215.640625 C 240.921875 215.605469 241.511719 215.484375 242.082031 215.28125 C 242.652344 215.078125 243.1875 214.800781 243.679688 214.449219 C 244.171875 214.09375 244.609375 213.683594 244.984375 213.207031 C 245.363281 212.730469 245.667969 212.214844 245.898438 211.652344 C 246.128906 211.089844 246.277344 210.511719 246.34375 209.90625 C 246.414062 209.304688 246.394531 208.703125 246.292969 208.105469 C 246.191406 207.507812 246.011719 206.933594 245.746094 206.386719 C 245.484375 205.84375 245.152344 205.34375 244.75 204.890625 C 244.089844 203.992188 243.640625 203 243.40625 201.910156 C 243.171875 200.824219 243.167969 199.734375 243.394531 198.644531 C 243.605469 197.550781 244.015625 196.542969 244.632812 195.613281 C 245.246094 194.6875 246.015625 193.914062 246.941406 193.296875 C 247.5 193.035156 248.007812 192.695312 248.46875 192.289062 C 248.929688 191.878906 249.328125 191.414062 249.65625 190.890625 C 249.984375 190.367188 250.230469 189.808594 250.398438 189.214844 C 250.570312 188.621094 250.652344 188.015625 250.644531 187.398438 C 250.640625 186.78125 250.550781 186.179688 250.371094 185.585938 C 250.195312 184.996094 249.9375 184.441406 249.601562 183.925781 C 249.265625 183.40625 248.863281 182.949219 248.394531 182.546875 C 247.929688 182.144531 247.414062 181.8125 246.851562 181.558594 Z M 229.675781 199.371094 C 229.347656 200.578125 229.035156 201.769531 228.640625 202.96875 C 227.835938 205.136719 226.820312 207.203125 225.597656 209.167969 C 225.09375 210.058594 224.570312 210.992188 224.058594 211.953125 C 223.375 212.785156 222.726562 213.613281 222.105469 214.410156 C 220.710938 216.347656 219.128906 218.125 217.363281 219.738281 C 216.355469 220.640625 215.230469 221.488281 214.105469 222.347656 C 213.386719 222.894531 212.625 223.476562 211.855469 224.097656 C 210.921875 224.601562 210.035156 225.105469 209.203125 225.585938 C 207.167969 226.871094 205.019531 227.910156 202.753906 228.710938 C 201.480469 229.160156 200.117188 229.511719 198.75 229.875 C 197.875 230.105469 196.945312 230.355469 195.988281 230.632812 C 194.832031 230.75 193.710938 230.882812 192.664062 231.015625 C 191.425781 231.175781 190.203125 231.332031 188.953125 231.433594 C 186.640625 231.523438 184.34375 231.378906 182.0625 230.996094 C 180.964844 230.859375 179.8125 230.714844 178.628906 230.605469 C 177.519531 230.300781 176.511719 229.90625 175.308594 229.695312 C 170.925781 228.429688 166.835938 226.539062 163.035156 224.019531 L 163.007812 224.007812 C 162.191406 223.339844 161.382812 222.714844 160.621094 222.125 C 158.660156 220.738281 156.871094 219.152344 155.261719 217.371094 C 154.359375 216.359375 153.511719 215.238281 152.652344 214.105469 C 152.101562 213.382812 151.515625 212.617188 150.886719 211.839844 C 150.386719 210.910156 149.886719 210.023438 149.40625 209.195312 C 148.128906 207.164062 147.089844 205.015625 146.289062 202.753906 C 145.839844 201.480469 145.488281 200.117188 145.128906 198.75 C 144.9375 198.042969 144.730469 197.285156 144.515625 196.523438 C 144.371094 195.128906 144.152344 193.75 143.851562 192.378906 C 143.339844 187.851562 143.519531 183.347656 144.394531 178.871094 C 144.734375 177.75 145.042969 176.65625 145.324219 175.628906 C 145.652344 174.421875 145.964844 173.230469 146.371094 171.980469 C 147.164062 169.8125 148.179688 167.753906 149.414062 165.804688 C 149.902344 164.953125 150.421875 164.039062 150.9375 163.082031 C 151.617188 162.246094 152.261719 161.414062 152.878906 160.613281 C 154.269531 158.660156 155.855469 156.875 157.636719 155.265625 C 158.644531 154.363281 159.761719 153.519531 160.894531 152.660156 C 161.609375 152.113281 162.363281 151.535156 163.132812 150.921875 C 166.75 148.523438 170.632812 146.691406 174.785156 145.425781 C 176.128906 145.179688 177.234375 144.757812 178.449219 144.417969 C 179.800781 144.296875 181.113281 144.148438 182.316406 143.992188 C 183.558594 143.832031 184.785156 143.675781 186.105469 143.566406 C 188.410156 143.46875 190.695312 143.621094 192.96875 144.015625 C 193.929688 144.140625 194.953125 144.269531 196.019531 144.378906 C 196.96875 144.65625 197.894531 144.902344 198.769531 145.132812 C 200.132812 145.492188 201.484375 145.839844 203.011719 146.371094 C 205.179688 147.167969 207.238281 148.179688 209.1875 149.410156 C 210.027344 149.890625 210.929688 150.398438 211.867188 150.90625 L 211.960938 150.988281 C 215.566406 153.410156 218.746094 156.300781 221.507812 159.65625 C 222.351562 160.953125 223.261719 162.199219 224.246094 163.394531 C 224.699219 164.230469 225.160156 165.046875 225.605469 165.832031 C 226.863281 167.863281 227.898438 170 228.710938 172.246094 C 229.160156 173.519531 229.511719 174.886719 229.875 176.25 C 230.097656 177.09375 230.335938 177.984375 230.601562 178.902344 C 230.707031 179.875 230.832031 180.8125 230.953125 181.699219 C 231.140625 183.09375 231.339844 184.480469 231.433594 186.097656 C 231.53125 188.402344 231.382812 190.695312 230.992188 192.96875 C 230.867188 193.941406 230.738281 194.980469 230.628906 196.058594 C 230.28125 197.203125 229.960938 198.324219 229.675781 199.371094 Z M 229.675781 199.371094 " fill-opacity="1" fill-rule="nonzero"/><path fill="#003348" d="M 274.019531 166.539062 L 272.648438 166.242188 C 270.558594 157.761719 267.265625 149.777344 262.761719 142.292969 L 263.507812 141.148438 C 264.167969 140.125 264.738281 139.054688 265.214844 137.933594 C 265.691406 136.816406 266.070312 135.664062 266.351562 134.480469 C 266.632812 133.296875 266.8125 132.09375 266.890625 130.878906 C 266.96875 129.664062 266.941406 128.453125 266.8125 127.242188 C 266.683594 126.03125 266.453125 124.839844 266.121094 123.671875 C 265.789062 122.5 265.359375 121.363281 264.835938 120.265625 C 264.3125 119.167969 263.695312 118.121094 262.992188 117.128906 C 262.289062 116.132812 261.507812 115.207031 260.648438 114.347656 C 259.785156 113.488281 258.859375 112.703125 257.867188 112.003906 C 256.871094 111.300781 255.824219 110.6875 254.726562 110.160156 C 253.628906 109.636719 252.492188 109.207031 251.324219 108.878906 C 250.152344 108.546875 248.960938 108.316406 247.75 108.1875 C 246.539062 108.058594 245.328125 108.035156 244.113281 108.109375 C 242.898438 108.1875 241.699219 108.367188 240.511719 108.652344 C 239.328125 108.933594 238.175781 109.3125 237.058594 109.789062 C 235.9375 110.269531 234.867188 110.839844 233.84375 111.5 L 232.707031 112.238281 C 225.222656 107.726562 217.238281 104.417969 208.753906 102.316406 L 208.460938 100.984375 C 208.207031 99.796875 207.851562 98.636719 207.398438 97.507812 C 206.945312 96.378906 206.398438 95.292969 205.761719 94.257812 C 205.125 93.222656 204.402344 92.246094 203.601562 91.332031 C 202.796875 90.417969 201.921875 89.578125 200.976562 88.816406 C 200.027344 88.050781 199.023438 87.371094 197.960938 86.777344 C 196.898438 86.183594 195.792969 85.683594 194.648438 85.277344 C 193.5 84.871094 192.328125 84.566406 191.128906 84.359375 C 189.929688 84.15625 188.71875 84.050781 187.503906 84.050781 C 186.285156 84.050781 185.078125 84.152344 183.878906 84.359375 C 182.679688 84.566406 181.503906 84.871094 180.359375 85.277344 C 179.210938 85.679688 178.105469 86.179688 177.042969 86.773438 C 175.980469 87.367188 174.976562 88.046875 174.027344 88.8125 C 173.082031 89.574219 172.207031 90.414062 171.402344 91.328125 C 170.597656 92.242188 169.878906 93.214844 169.238281 94.253906 C 168.601562 95.289062 168.054688 96.371094 167.601562 97.5 C 167.148438 98.628906 166.792969 99.789062 166.539062 100.980469 L 166.246094 102.316406 C 157.761719 104.417969 149.777344 107.726562 142.292969 112.238281 L 141.148438 111.492188 C 140.125 110.832031 139.054688 110.261719 137.933594 109.785156 C 136.816406 109.308594 135.664062 108.929688 134.480469 108.648438 C 133.296875 108.363281 132.09375 108.183594 130.878906 108.109375 C 129.664062 108.03125 128.453125 108.058594 127.242188 108.1875 C 126.03125 108.316406 124.839844 108.546875 123.671875 108.878906 C 122.5 109.210938 121.363281 109.636719 120.265625 110.164062 C 119.167969 110.6875 118.121094 111.300781 117.128906 112.003906 C 116.132812 112.707031 115.207031 113.488281 114.347656 114.351562 C 113.484375 115.210938 112.703125 116.140625 112 117.132812 C 111.296875 118.128906 110.683594 119.175781 110.160156 120.273438 C 109.636719 121.371094 109.207031 122.503906 108.875 123.675781 C 108.546875 124.847656 108.316406 126.039062 108.1875 127.25 C 108.058594 128.460938 108.03125 129.671875 108.109375 130.886719 C 108.1875 132.101562 108.367188 133.300781 108.648438 134.488281 C 108.933594 135.671875 109.3125 136.824219 109.789062 137.941406 C 110.269531 139.0625 110.839844 140.132812 111.5 141.15625 L 112.238281 142.292969 C 107.726562 149.777344 104.417969 157.761719 102.316406 166.246094 L 100.984375 166.539062 C 99.796875 166.792969 98.636719 167.148438 97.507812 167.601562 C 96.378906 168.054688 95.292969 168.601562 94.257812 169.238281 C 93.222656 169.875 92.246094 170.597656 91.332031 171.398438 C 90.417969 172.203125 89.578125 173.078125 88.816406 174.023438 C 88.050781 174.972656 87.371094 175.976562 86.777344 177.039062 C 86.183594 178.101562 85.683594 179.207031 85.277344 180.351562 C 84.871094 181.5 84.566406 182.671875 84.359375 183.871094 C 84.15625 185.070312 84.050781 186.28125 84.050781 187.496094 C 84.050781 188.714844 84.152344 189.921875 84.359375 191.121094 C 84.566406 192.320312 84.871094 193.496094 85.277344 194.640625 C 85.679688 195.789062 86.179688 196.894531 86.773438 197.957031 C 87.367188 199.019531 88.046875 200.023438 88.8125 200.972656 C 89.574219 201.917969 90.414062 202.792969 91.328125 203.597656 C 92.242188 204.402344 93.214844 205.121094 94.253906 205.761719 C 95.289062 206.398438 96.371094 206.945312 97.5 207.398438 C 98.628906 207.851562 99.789062 208.207031 100.980469 208.460938 L 102.316406 208.753906 C 104.417969 217.238281 107.726562 225.222656 112.238281 232.707031 L 111.492188 233.851562 C 110.832031 234.875 110.261719 235.945312 109.785156 237.066406 C 109.308594 238.183594 108.929688 239.335938 108.648438 240.519531 C 108.363281 241.703125 108.183594 242.90625 108.109375 244.121094 C 108.03125 245.335938 108.058594 246.546875 108.1875 247.757812 C 108.316406 248.96875 108.546875 250.160156 108.878906 251.328125 C 109.210938 252.5 109.636719 253.636719 110.164062 254.734375 C 110.6875 255.832031 111.300781 256.878906 112.003906 257.871094 C 112.707031 258.867188 113.488281 259.792969 114.351562 260.652344 C 115.210938 261.515625 116.140625 262.296875 117.132812 263 C 118.128906 263.703125 119.175781 264.316406 120.273438 264.839844 C 121.371094 265.363281 122.507812 265.792969 123.675781 266.125 C 124.847656 266.453125 126.039062 266.683594 127.25 266.8125 C 128.460938 266.941406 129.671875 266.96875 130.886719 266.890625 C 132.101562 266.8125 133.300781 266.632812 134.488281 266.347656 C 135.671875 266.066406 136.824219 265.6875 137.941406 265.210938 C 139.0625 264.730469 140.132812 264.160156 141.15625 263.5 L 142.292969 262.761719 C 149.777344 267.273438 157.761719 270.582031 166.246094 272.683594 L 166.539062 274.015625 C 166.792969 275.203125 167.148438 276.363281 167.601562 277.492188 C 168.054688 278.621094 168.601562 279.703125 169.238281 280.742188 C 169.875 281.777344 170.597656 282.753906 171.398438 283.667969 C 172.203125 284.582031 173.078125 285.421875 174.023438 286.183594 C 174.972656 286.949219 175.976562 287.628906 177.039062 288.222656 C 178.101562 288.816406 179.207031 289.316406 180.351562 289.722656 C 181.5 290.128906 182.671875 290.433594 183.871094 290.640625 C 185.070312 290.84375 186.28125 290.949219 187.496094 290.949219 C 188.714844 290.949219 189.921875 290.847656 191.121094 290.640625 C 192.320312 290.433594 193.496094 290.128906 194.640625 289.722656 C 195.789062 289.320312 196.894531 288.820312 197.957031 288.226562 C 199.019531 287.632812 200.023438 286.953125 200.972656 286.1875 C 201.917969 285.425781 202.792969 284.585938 203.597656 283.671875 C 204.402344 282.757812 205.121094 281.785156 205.761719 280.746094 C 206.398438 279.710938 206.945312 278.628906 207.398438 277.5 C 207.851562 276.371094 208.207031 275.210938 208.460938 274.019531 L 208.753906 272.683594 C 217.238281 270.582031 225.222656 267.273438 232.707031 262.761719 L 233.851562 263.507812 C 234.875 264.167969 235.945312 264.738281 237.066406 265.214844 C 238.183594 265.691406 239.335938 266.070312 240.519531 266.351562 C 241.703125 266.636719 242.90625 266.8125 244.121094 266.890625 C 245.335938 266.96875 246.546875 266.941406 247.757812 266.8125 C 248.96875 266.683594 250.160156 266.453125 251.328125 266.121094 C 252.5 265.789062 253.636719 265.363281 254.734375 264.835938 C 255.832031 264.3125 256.878906 263.699219 257.871094 262.996094 C 258.867188 262.292969 259.792969 261.507812 260.652344 260.648438 C 261.515625 259.789062 262.296875 258.859375 263 257.867188 C 263.699219 256.871094 264.316406 255.824219 264.839844 254.726562 C 265.363281 253.628906 265.792969 252.492188 266.125 251.324219 C 266.453125 250.152344 266.683594 248.960938 266.8125 247.75 C 266.941406 246.539062 266.96875 245.328125 266.890625 244.113281 C 266.8125 242.898438 266.632812 241.699219 266.347656 240.511719 C 266.066406 239.328125 265.6875 238.175781 265.210938 237.058594 C 264.730469 235.9375 264.160156 234.867188 263.5 233.84375 L 262.761719 232.707031 C 267.265625 225.222656 270.558594 217.238281 272.648438 208.757812 L 274.015625 208.460938 C 275.203125 208.207031 276.363281 207.851562 277.492188 207.398438 C 278.621094 206.945312 279.707031 206.398438 280.742188 205.761719 C 281.777344 205.125 282.753906 204.402344 283.667969 203.601562 C 284.582031 202.796875 285.421875 201.921875 286.183594 200.976562 C 286.949219 200.027344 287.628906 199.023438 288.222656 197.960938 C 288.816406 196.898438 289.316406 195.792969 289.722656 194.648438 C 290.128906 193.5 290.433594 192.328125 290.640625 191.128906 C 290.84375 189.929688 290.949219 188.71875 290.949219 187.503906 C 290.949219 186.285156 290.847656 185.078125 290.640625 183.878906 C 290.433594 182.679688 290.128906 181.503906 289.722656 180.359375 C 289.320312 179.210938 288.820312 178.105469 288.226562 177.042969 C 287.632812 175.980469 286.953125 174.976562 286.1875 174.027344 C 285.425781 173.082031 284.585938 172.207031 283.671875 171.402344 C 282.757812 170.597656 281.785156 169.878906 280.746094 169.238281 C 279.710938 168.601562 278.628906 168.054688 277.5 167.601562 C 276.371094 167.148438 275.210938 166.792969 274.019531 166.539062 Z M 271.292969 195.820312 L 265.875 196.988281 C 265.257812 197.125 264.671875 197.34375 264.121094 197.648438 C 263.566406 197.953125 263.070312 198.332031 262.628906 198.78125 C 262.183594 199.230469 261.816406 199.734375 261.519531 200.292969 C 261.226562 200.851562 261.015625 201.441406 260.894531 202.058594 C 258.988281 211.835938 255.265625 220.859375 249.71875 229.132812 C 249.367188 229.660156 249.097656 230.222656 248.910156 230.828125 C 248.722656 231.433594 248.625 232.050781 248.621094 232.683594 C 248.617188 233.316406 248.699219 233.933594 248.875 234.542969 C 249.050781 235.148438 249.3125 235.71875 249.65625 236.25 L 252.636719 240.859375 C 252.898438 241.265625 253.121094 241.691406 253.3125 242.132812 C 253.503906 242.578125 253.652344 243.035156 253.765625 243.507812 C 253.875 243.976562 253.949219 244.453125 253.980469 244.933594 C 254.007812 245.417969 254 245.898438 253.949219 246.378906 C 253.898438 246.859375 253.804688 247.332031 253.675781 247.796875 C 253.542969 248.261719 253.375 248.710938 253.164062 249.148438 C 252.957031 249.585938 252.714844 250 252.433594 250.394531 C 252.15625 250.789062 251.847656 251.15625 251.503906 251.5 C 251.164062 251.839844 250.792969 252.152344 250.402344 252.429688 C 250.007812 252.710938 249.589844 252.953125 249.15625 253.164062 C 248.71875 253.371094 248.269531 253.542969 247.804688 253.671875 C 247.339844 253.804688 246.867188 253.898438 246.386719 253.949219 C 245.90625 254 245.425781 254.011719 244.941406 253.980469 C 244.460938 253.949219 243.984375 253.878906 243.515625 253.769531 C 243.042969 253.65625 242.585938 253.507812 242.140625 253.316406 C 241.699219 253.128906 241.273438 252.902344 240.867188 252.640625 L 236.25 249.65625 C 235.71875 249.3125 235.148438 249.054688 234.542969 248.878906 C 233.9375 248.703125 233.316406 248.617188 232.6875 248.621094 C 232.054688 248.628906 231.4375 248.722656 230.835938 248.90625 C 230.230469 249.09375 229.664062 249.363281 229.140625 249.710938 C 220.867188 255.273438 211.835938 259.007812 202.054688 260.925781 C 201.433594 261.046875 200.847656 261.257812 200.289062 261.550781 C 199.730469 261.847656 199.226562 262.214844 198.773438 262.660156 C 198.324219 263.101562 197.945312 263.597656 197.640625 264.152344 C 197.335938 264.703125 197.117188 265.289062 196.984375 265.90625 L 195.820312 271.300781 C 195.71875 271.769531 195.578125 272.230469 195.398438 272.679688 C 195.21875 273.128906 195 273.558594 194.75 273.96875 C 194.496094 274.378906 194.207031 274.765625 193.890625 275.128906 C 193.570312 275.492188 193.222656 275.824219 192.847656 276.128906 C 192.472656 276.433594 192.070312 276.703125 191.648438 276.9375 C 191.226562 277.171875 190.789062 277.371094 190.335938 277.53125 C 189.878906 277.691406 189.414062 277.8125 188.9375 277.894531 C 188.460938 277.976562 187.980469 278.015625 187.496094 278.015625 C 187.015625 278.015625 186.535156 277.976562 186.058594 277.894531 C 185.582031 277.8125 185.117188 277.691406 184.660156 277.53125 C 184.207031 277.367188 183.765625 277.171875 183.347656 276.933594 C 182.925781 276.699219 182.527344 276.429688 182.148438 276.125 C 181.773438 275.820312 181.425781 275.488281 181.109375 275.125 C 180.789062 274.761719 180.503906 274.375 180.25 273.964844 C 179.996094 273.550781 179.78125 273.121094 179.601562 272.671875 C 179.421875 272.226562 179.28125 271.765625 179.179688 271.292969 L 178.015625 265.90625 C 177.882812 265.289062 177.664062 264.703125 177.359375 264.152344 C 177.054688 263.597656 176.675781 263.101562 176.226562 262.660156 C 175.773438 262.214844 175.269531 261.847656 174.710938 261.550781 C 174.15625 261.257812 173.566406 261.046875 172.945312 260.925781 C 163.164062 259.007812 154.132812 255.273438 145.859375 249.710938 C 145.335938 249.359375 144.769531 249.09375 144.167969 248.90625 C 143.5625 248.71875 142.945312 248.625 142.3125 248.621094 C 141.679688 248.613281 141.0625 248.699219 140.457031 248.875 C 139.847656 249.050781 139.28125 249.3125 138.75 249.65625 L 134.140625 252.636719 C 133.734375 252.898438 133.308594 253.121094 132.867188 253.3125 C 132.421875 253.503906 131.964844 253.652344 131.492188 253.765625 C 131.023438 253.875 130.546875 253.949219 130.066406 253.980469 C 129.582031 254.007812 129.101562 254 128.621094 253.949219 C 128.140625 253.898438 127.667969 253.804688 127.203125 253.675781 C 126.738281 253.542969 126.289062 253.375 125.851562 253.164062 C 125.414062 252.957031 125 252.714844 124.605469 252.433594 C 124.210938 252.15625 123.84375 251.847656 123.5 251.503906 C 123.160156 251.164062 122.847656 250.792969 122.570312 250.402344 C 122.289062 250.007812 122.046875 249.589844 121.835938 249.15625 C 121.628906 248.71875 121.457031 248.269531 121.328125 247.804688 C 121.195312 247.339844 121.101562 246.867188 121.050781 246.386719 C 121 245.90625 120.988281 245.425781 121.019531 244.941406 C 121.050781 244.460938 121.121094 243.984375 121.230469 243.515625 C 121.34375 243.042969 121.492188 242.585938 121.683594 242.140625 C 121.871094 241.699219 122.097656 241.273438 122.359375 240.867188 L 125.34375 236.25 C 125.6875 235.71875 125.949219 235.152344 126.125 234.542969 C 126.300781 233.9375 126.386719 233.320312 126.378906 232.6875 C 126.375 232.054688 126.28125 231.4375 126.09375 230.835938 C 125.90625 230.230469 125.640625 229.664062 125.289062 229.140625 C 119.726562 220.867188 115.992188 211.835938 114.074219 202.054688 C 113.953125 201.433594 113.742188 200.847656 113.449219 200.289062 C 113.152344 199.730469 112.785156 199.226562 112.339844 198.773438 C 111.898438 198.324219 111.402344 197.945312 110.847656 197.640625 C 110.296875 197.335938 109.710938 197.117188 109.09375 196.984375 L 103.699219 195.820312 C 103.226562 195.71875 102.769531 195.578125 102.320312 195.398438 C 101.871094 195.21875 101.441406 195 101.03125 194.75 C 100.621094 194.496094 100.234375 194.207031 99.871094 193.890625 C 99.507812 193.570312 99.175781 193.222656 98.871094 192.847656 C 98.566406 192.472656 98.296875 192.070312 98.0625 191.648438 C 97.828125 191.226562 97.628906 190.789062 97.46875 190.335938 C 97.308594 189.878906 97.1875 189.414062 97.105469 188.9375 C 97.023438 188.460938 96.984375 187.980469 96.984375 187.496094 C 96.984375 187.015625 97.023438 186.535156 97.105469 186.058594 C 97.1875 185.582031 97.308594 185.117188 97.46875 184.660156 C 97.632812 184.207031 97.828125 183.765625 98.066406 183.347656 C 98.300781 182.925781 98.570312 182.527344 98.875 182.148438 C 99.179688 181.773438 99.511719 181.425781 99.875 181.109375 C 100.238281 180.789062 100.625 180.503906 101.035156 180.25 C 101.449219 179.996094 101.878906 179.78125 102.324219 179.601562 C 102.773438 179.421875 103.234375 179.28125 103.707031 179.179688 L 109.09375 178.015625 C 109.710938 177.882812 110.296875 177.664062 110.847656 177.359375 C 111.402344 177.054688 111.898438 176.675781 112.339844 176.226562 C 112.785156 175.773438 113.152344 175.269531 113.449219 174.710938 C 113.742188 174.15625 113.953125 173.566406 114.074219 172.945312 C 115.992188 163.164062 119.726562 154.132812 125.289062 145.859375 C 125.640625 145.335938 125.90625 144.769531 126.09375 144.167969 C 126.28125 143.5625 126.375 142.945312 126.378906 142.3125 C 126.386719 141.679688 126.300781 141.0625 126.125 140.457031 C 125.945312 139.847656 125.6875 139.28125 125.34375 138.75 L 122.363281 134.140625 C 122.101562 133.734375 121.878906 133.308594 121.6875 132.863281 C 121.496094 132.421875 121.347656 131.964844 121.234375 131.492188 C 121.125 131.023438 121.050781 130.546875 121.019531 130.066406 C 120.992188 129.582031 121 129.101562 121.050781 128.621094 C 121.101562 128.140625 121.195312 127.667969 121.324219 127.203125 C 121.457031 126.738281 121.625 126.289062 121.835938 125.851562 C 122.042969 125.414062 122.285156 125 122.566406 124.605469 C 122.84375 124.210938 123.152344 123.84375 123.496094 123.5 C 123.835938 123.160156 124.207031 122.847656 124.597656 122.570312 C 124.992188 122.289062 125.410156 122.046875 125.84375 121.835938 C 126.28125 121.628906 126.730469 121.457031 127.195312 121.328125 C 127.660156 121.195312 128.132812 121.101562 128.613281 121.050781 C 129.09375 121 129.574219 120.988281 130.058594 121.019531 C 130.539062 121.050781 131.015625 121.121094 131.484375 121.230469 C 131.957031 121.34375 132.414062 121.492188 132.859375 121.683594 C 133.300781 121.871094 133.726562 122.097656 134.132812 122.359375 L 138.75 125.34375 C 139.28125 125.6875 139.851562 125.945312 140.457031 126.121094 C 141.0625 126.296875 141.683594 126.378906 142.3125 126.375 C 142.945312 126.371094 143.5625 126.273438 144.164062 126.089844 C 144.769531 125.90625 145.332031 125.636719 145.859375 125.289062 C 154.132812 119.726562 163.164062 115.992188 172.945312 114.074219 C 173.566406 113.953125 174.152344 113.742188 174.710938 113.449219 C 175.269531 113.152344 175.773438 112.785156 176.226562 112.339844 C 176.675781 111.898438 177.054688 111.402344 177.359375 110.847656 C 177.664062 110.296875 177.882812 109.710938 178.015625 109.09375 L 179.179688 103.699219 C 179.28125 103.226562 179.421875 102.769531 179.601562 102.320312 C 179.78125 101.871094 180 101.441406 180.25 101.03125 C 180.503906 100.621094 180.792969 100.230469 181.109375 99.871094 C 181.429688 99.507812 181.777344 99.175781 182.152344 98.871094 C 182.527344 98.566406 182.929688 98.296875 183.351562 98.0625 C 183.773438 97.828125 184.210938 97.628906 184.664062 97.46875 C 185.121094 97.308594 185.585938 97.1875 186.0625 97.105469 C 186.539062 97.023438 187.019531 96.984375 187.503906 96.984375 C 187.984375 96.984375 188.464844 97.023438 188.941406 97.105469 C 189.417969 97.1875 189.882812 97.308594 190.339844 97.46875 C 190.792969 97.632812 191.234375 97.828125 191.652344 98.066406 C 192.074219 98.300781 192.472656 98.570312 192.851562 98.875 C 193.226562 99.179688 193.574219 99.511719 193.890625 99.875 C 194.210938 100.238281 194.496094 100.625 194.75 101.035156 C 195.003906 101.449219 195.21875 101.878906 195.398438 102.324219 C 195.578125 102.773438 195.71875 103.234375 195.820312 103.707031 L 196.984375 109.09375 C 197.117188 109.710938 197.335938 110.296875 197.640625 110.847656 C 197.945312 111.402344 198.324219 111.898438 198.773438 112.339844 C 199.226562 112.785156 199.730469 113.152344 200.289062 113.449219 C 200.84375 113.742188 201.433594 113.953125 202.054688 114.074219 C 211.835938 115.992188 220.867188 119.726562 229.140625 125.289062 C 229.667969 125.636719 230.230469 125.90625 230.835938 126.089844 C 231.4375 126.273438 232.054688 126.371094 232.6875 126.375 C 233.316406 126.378906 233.9375 126.296875 234.542969 126.121094 C 235.148438 125.945312 235.71875 125.6875 236.25 125.34375 L 240.859375 122.363281 C 241.265625 122.101562 241.691406 121.878906 242.136719 121.6875 C 242.578125 121.496094 243.035156 121.347656 243.507812 121.234375 C 243.976562 121.125 244.453125 121.050781 244.933594 121.019531 C 245.417969 120.992188 245.898438 121 246.378906 121.050781 C 246.859375 121.101562 247.332031 121.195312 247.796875 121.324219 C 248.261719 121.457031 248.710938 121.625 249.148438 121.835938 C 249.585938 122.042969 250 122.285156 250.394531 122.566406 C 250.789062 122.84375 251.15625 123.152344 251.5 123.496094 C 251.839844 123.835938 252.152344 124.207031 252.429688 124.597656 C 252.710938 124.992188 252.953125 125.410156 253.164062 125.84375 C 253.371094 126.28125 253.542969 126.730469 253.671875 127.195312 C 253.804688 127.660156 253.898438 128.132812 253.949219 128.613281 C 254 129.09375 254.011719 129.574219 253.980469 130.058594 C 253.949219 130.539062 253.878906 131.015625 253.769531 131.484375 C 253.65625 131.957031 253.507812 132.414062 253.316406 132.859375 C 253.128906 133.300781 252.902344 133.726562 252.640625 134.132812 L 249.65625 138.75 C 249.3125 139.28125 249.050781 139.851562 248.875 140.457031 C 248.699219 141.066406 248.613281 141.683594 248.621094 142.316406 C 248.625 142.949219 248.722656 143.566406 248.910156 144.171875 C 249.097656 144.777344 249.367188 145.339844 249.71875 145.867188 C 255.261719 154.140625 258.988281 163.164062 260.894531 172.941406 C 261.015625 173.558594 261.226562 174.148438 261.519531 174.707031 C 261.816406 175.265625 262.183594 175.769531 262.628906 176.21875 C 263.070312 176.667969 263.566406 177.046875 264.121094 177.351562 C 264.671875 177.65625 265.257812 177.875 265.875 178.011719 L 271.300781 179.179688 C 271.769531 179.28125 272.230469 179.421875 272.679688 179.601562 C 273.128906 179.78125 273.558594 180 273.96875 180.25 C 274.378906 180.503906 274.765625 180.792969 275.128906 181.109375 C 275.492188 181.429688 275.824219 181.777344 276.128906 182.152344 C 276.433594 182.527344 276.703125 182.929688 276.9375 183.351562 C 277.171875 183.773438 277.371094 184.210938 277.53125 184.667969 C 277.691406 185.121094 277.8125 185.585938 277.894531 186.0625 C 277.976562 186.539062 278.015625 187.019531 278.015625 187.503906 C 278.015625 187.984375 277.976562 188.464844 277.894531 188.941406 C 277.8125 189.417969 277.691406 189.882812 277.53125 190.339844 C 277.367188 190.792969 277.167969 191.234375 276.933594 191.65625 C 276.699219 192.074219 276.429688 192.476562 276.125 192.851562 C 275.820312 193.226562 275.488281 193.574219 275.125 193.890625 C 274.761719 194.210938 274.375 194.496094 273.964844 194.75 C 273.550781 195.003906 273.121094 195.21875 272.671875 195.398438 C 272.226562 195.578125 271.765625 195.71875 271.292969 195.820312 Z M 271.292969 195.820312 " fill-opacity="1" fill-rule="nonzero"/><path fill="#003348" d="M 207.445312 166.589844 L 179.328125 194.699219 L 167.554688 182.929688 C 167.253906 182.632812 166.925781 182.371094 166.574219 182.136719 C 166.21875 181.90625 165.847656 181.710938 165.457031 181.550781 C 165.066406 181.394531 164.664062 181.273438 164.25 181.195312 C 163.835938 181.113281 163.417969 181.074219 162.996094 181.078125 C 162.574219 181.078125 162.15625 181.121094 161.742188 181.203125 C 161.328125 181.289062 160.925781 181.410156 160.535156 181.574219 C 160.148438 181.734375 159.777344 181.933594 159.425781 182.167969 C 159.074219 182.40625 158.75 182.671875 158.453125 182.96875 C 158.152344 183.269531 157.886719 183.59375 157.652344 183.941406 C 157.417969 184.292969 157.21875 184.664062 157.054688 185.054688 C 156.894531 185.441406 156.769531 185.84375 156.6875 186.257812 C 156.605469 186.671875 156.5625 187.089844 156.558594 187.511719 C 156.558594 187.933594 156.597656 188.351562 156.675781 188.765625 C 156.757812 189.179688 156.875 189.582031 157.035156 189.976562 C 157.195312 190.367188 157.390625 190.738281 157.621094 191.089844 C 157.851562 191.441406 158.117188 191.769531 158.410156 192.070312 L 174.757812 208.410156 C 175.058594 208.710938 175.386719 208.980469 175.738281 209.214844 C 176.089844 209.453125 176.464844 209.652344 176.855469 209.8125 C 177.246094 209.976562 177.652344 210.097656 178.070312 210.179688 C 178.484375 210.265625 178.90625 210.304688 179.328125 210.304688 C 179.753906 210.304688 180.175781 210.265625 180.589844 210.179688 C 181.007812 210.097656 181.410156 209.976562 181.804688 209.8125 C 182.195312 209.652344 182.570312 209.453125 182.921875 209.214844 C 183.273438 208.980469 183.601562 208.710938 183.902344 208.410156 L 216.589844 175.730469 C 216.886719 175.429688 217.152344 175.101562 217.382812 174.75 C 217.617188 174.398438 217.8125 174.027344 217.972656 173.632812 C 218.132812 173.242188 218.253906 172.839844 218.335938 172.425781 C 218.414062 172.007812 218.453125 171.589844 218.453125 171.167969 C 218.453125 170.746094 218.410156 170.328125 218.328125 169.910156 C 218.242188 169.496094 218.121094 169.09375 217.957031 168.703125 C 217.796875 168.3125 217.597656 167.945312 217.363281 167.59375 C 217.125 167.242188 216.859375 166.914062 216.558594 166.617188 C 216.261719 166.316406 215.9375 166.050781 215.585938 165.816406 C 215.234375 165.582031 214.863281 165.382812 214.472656 165.21875 C 214.082031 165.054688 213.679688 164.933594 213.265625 164.851562 C 212.851562 164.765625 212.433594 164.722656 212.007812 164.722656 C 211.585938 164.722656 211.167969 164.761719 210.753906 164.84375 C 210.335938 164.921875 209.933594 165.042969 209.542969 165.203125 C 209.152344 165.363281 208.78125 165.558594 208.425781 165.792969 C 208.074219 166.027344 207.746094 166.292969 207.445312 166.589844 Z M 207.445312 166.589844 " fill-opacity="1" fill-rule="nonzero"/></svg>