<svg xmlns="http://www.w3.org/2000/svg" xmlns:xlink="http://www.w3.org/1999/xlink" width="500" zoomAndPan="magnify" viewBox="0 0 375 374.999991" height="500" preserveAspectRatio="xMidYMid meet" version="1.0"><path fill="#003348" d="M 213.019531 374.980469 L 161.980469 374.980469 C 161.382812 374.980469 160.785156 374.953125 160.191406 374.890625 C 159.597656 374.832031 159.007812 374.746094 158.421875 374.628906 C 157.835938 374.511719 157.257812 374.367188 156.6875 374.191406 C 156.117188 374.019531 155.554688 373.816406 155.003906 373.589844 C 154.453125 373.359375 153.914062 373.105469 153.386719 372.820312 C 152.859375 372.539062 152.347656 372.234375 151.851562 371.902344 C 151.355469 371.570312 150.875 371.214844 150.414062 370.835938 C 149.953125 370.457031 149.511719 370.054688 149.089844 369.632812 C 148.667969 369.210938 148.265625 368.769531 147.886719 368.308594 C 147.507812 367.84375 147.152344 367.367188 146.820312 366.871094 C 146.492188 366.371094 146.183594 365.863281 145.902344 365.335938 C 145.621094 364.808594 145.367188 364.269531 145.136719 363.71875 C 144.910156 363.164062 144.707031 362.605469 144.535156 362.03125 C 144.359375 361.460938 144.214844 360.882812 144.097656 360.296875 C 143.980469 359.710938 143.894531 359.121094 143.835938 358.527344 C 143.777344 357.933594 143.746094 357.335938 143.746094 356.738281 L 143.746094 321.128906 C 136.941406 318.898438 130.347656 316.160156 123.960938 312.914062 L 98.769531 338.152344 C 98.347656 338.574219 97.902344 338.976562 97.441406 339.355469 C 96.980469 339.734375 96.5 340.089844 96.003906 340.417969 C 95.507812 340.75 94.996094 341.058594 94.46875 341.339844 C 93.941406 341.621094 93.402344 341.875 92.851562 342.101562 C 92.300781 342.332031 91.738281 342.53125 91.164062 342.707031 C 90.59375 342.878906 90.015625 343.023438 89.429688 343.140625 C 88.84375 343.257812 88.253906 343.34375 87.660156 343.402344 C 87.066406 343.460938 86.46875 343.488281 85.871094 343.488281 C 85.273438 343.488281 84.679688 343.460938 84.085938 343.402344 C 83.492188 343.34375 82.902344 343.257812 82.316406 343.140625 C 81.730469 343.023438 81.152344 342.878906 80.578125 342.707031 C 80.007812 342.53125 79.445312 342.332031 78.894531 342.101562 C 78.34375 341.875 77.804688 341.621094 77.277344 341.339844 C 76.75 341.058594 76.238281 340.75 75.742188 340.417969 C 75.242188 340.089844 74.765625 339.734375 74.304688 339.355469 C 73.839844 338.976562 73.398438 338.574219 72.976562 338.152344 L 36.847656 302.023438 C 36.425781 301.601562 36.023438 301.160156 35.644531 300.695312 C 35.265625 300.234375 34.910156 299.757812 34.582031 299.257812 C 34.25 298.761719 33.941406 298.25 33.660156 297.722656 C 33.378906 297.195312 33.125 296.65625 32.898438 296.105469 C 32.667969 295.554688 32.46875 294.992188 32.292969 294.421875 C 32.121094 293.847656 31.976562 293.269531 31.859375 292.683594 C 31.742188 292.097656 31.65625 291.507812 31.597656 290.914062 C 31.539062 290.320312 31.511719 289.726562 31.511719 289.128906 C 31.511719 288.53125 31.539062 287.933594 31.597656 287.339844 C 31.65625 286.746094 31.742188 286.15625 31.859375 285.570312 C 31.976562 284.984375 32.121094 284.40625 32.292969 283.835938 C 32.46875 283.261719 32.667969 282.699219 32.898438 282.148438 C 33.125 281.597656 33.378906 281.058594 33.660156 280.53125 C 33.941406 280.003906 34.25 279.492188 34.582031 278.996094 C 34.910156 278.5 35.265625 278.019531 35.644531 277.558594 C 36.023438 277.097656 36.425781 276.652344 36.847656 276.230469 L 62.085938 251.027344 C 58.855469 244.644531 56.132812 238.046875 53.917969 231.242188 L 18.25 231.242188 C 17.652344 231.242188 17.058594 231.214844 16.464844 231.15625 C 15.871094 231.09375 15.28125 231.007812 14.695312 230.890625 C 14.109375 230.773438 13.53125 230.628906 12.960938 230.453125 C 12.390625 230.28125 11.828125 230.078125 11.277344 229.851562 C 10.726562 229.621094 10.1875 229.367188 9.660156 229.085938 C 9.132812 228.804688 8.621094 228.496094 8.125 228.164062 C 7.628906 227.832031 7.152344 227.480469 6.6875 227.101562 C 6.226562 226.722656 5.785156 226.320312 5.363281 225.898438 C 4.941406 225.476562 4.542969 225.035156 4.164062 224.574219 C 3.785156 224.113281 3.429688 223.632812 3.097656 223.136719 C 2.765625 222.640625 2.457031 222.128906 2.175781 221.601562 C 1.894531 221.074219 1.640625 220.539062 1.410156 219.984375 C 1.183594 219.433594 0.980469 218.875 0.808594 218.300781 C 0.632812 217.730469 0.488281 217.152344 0.371094 216.566406 C 0.253906 215.980469 0.167969 215.390625 0.109375 214.796875 C 0.046875 214.203125 0.0195312 213.609375 0.0195312 213.011719 L 0.0195312 161.980469 C 0.0195312 161.382812 0.046875 160.789062 0.109375 160.191406 C 0.167969 159.597656 0.253906 159.007812 0.371094 158.425781 C 0.488281 157.839844 0.632812 157.261719 0.808594 156.6875 C 0.980469 156.117188 1.183594 155.554688 1.410156 155.003906 C 1.640625 154.453125 1.894531 153.914062 2.175781 153.386719 C 2.457031 152.863281 2.765625 152.351562 3.097656 151.855469 C 3.429688 151.359375 3.785156 150.878906 4.164062 150.417969 C 4.542969 149.957031 4.941406 149.515625 5.363281 149.09375 C 5.785156 148.671875 6.226562 148.269531 6.6875 147.890625 C 7.152344 147.511719 7.628906 147.15625 8.125 146.824219 C 8.621094 146.492188 9.132812 146.1875 9.660156 145.90625 C 10.1875 145.625 10.726562 145.367188 11.277344 145.140625 C 11.828125 144.910156 12.390625 144.710938 12.960938 144.535156 C 13.53125 144.363281 14.109375 144.21875 14.695312 144.101562 C 15.28125 143.984375 15.871094 143.894531 16.464844 143.835938 C 17.058594 143.777344 17.652344 143.746094 18.25 143.746094 L 53.871094 143.746094 C 56.089844 136.941406 58.8125 130.347656 62.039062 123.960938 L 36.847656 98.769531 C 36.425781 98.347656 36.023438 97.902344 35.644531 97.441406 C 35.265625 96.980469 34.910156 96.5 34.582031 96.003906 C 34.25 95.507812 33.941406 94.996094 33.660156 94.46875 C 33.378906 93.941406 33.125 93.402344 32.898438 92.851562 C 32.667969 92.300781 32.46875 91.738281 32.292969 91.164062 C 32.121094 90.59375 31.976562 90.015625 31.859375 89.429688 C 31.742188 88.84375 31.65625 88.253906 31.597656 87.660156 C 31.539062 87.066406 31.511719 86.46875 31.511719 85.871094 C 31.511719 85.273438 31.539062 84.679688 31.597656 84.085938 C 31.65625 83.492188 31.742188 82.902344 31.859375 82.316406 C 31.976562 81.730469 32.121094 81.152344 32.292969 80.578125 C 32.46875 80.007812 32.667969 79.445312 32.898438 78.894531 C 33.125 78.34375 33.378906 77.804688 33.660156 77.277344 C 33.941406 76.75 34.25 76.238281 34.582031 75.742188 C 34.910156 75.242188 35.265625 74.765625 35.644531 74.304688 C 36.023438 73.839844 36.425781 73.398438 36.847656 72.976562 L 72.976562 36.847656 C 73.398438 36.425781 73.839844 36.023438 74.304688 35.644531 C 74.765625 35.265625 75.242188 34.910156 75.742188 34.582031 C 76.238281 34.25 76.75 33.941406 77.277344 33.660156 C 77.804688 33.378906 78.34375 33.125 78.894531 32.898438 C 79.445312 32.667969 80.007812 32.46875 80.578125 32.292969 C 81.152344 32.121094 81.730469 31.976562 82.316406 31.859375 C 82.902344 31.742188 83.492188 31.65625 84.085938 31.597656 C 84.679688 31.539062 85.273438 31.511719 85.871094 31.511719 C 86.46875 31.511719 87.066406 31.539062 87.660156 31.597656 C 88.253906 31.65625 88.84375 31.742188 89.429688 31.859375 C 90.015625 31.976562 90.59375 32.121094 91.164062 32.292969 C 91.738281 32.46875 92.300781 32.667969 92.851562 32.898438 C 93.402344 33.125 93.941406 33.378906 94.46875 33.660156 C 94.996094 33.941406 95.507812 34.25 96.003906 34.582031 C 96.5 34.910156 96.980469 35.265625 97.441406 35.644531 C 97.902344 36.023438 98.347656 36.425781 98.769531 36.847656 L 123.972656 62.085938 C 130.355469 58.855469 136.953125 56.132812 143.757812 53.917969 L 143.757812 18.25 C 143.757812 17.652344 143.785156 17.058594 143.84375 16.464844 C 143.90625 15.871094 143.992188 15.28125 144.109375 14.695312 C 144.226562 14.109375 144.371094 13.53125 144.546875 12.960938 C 144.71875 12.390625 144.921875 11.828125 145.148438 11.277344 C 145.378906 10.726562 145.632812 10.1875 145.914062 9.660156 C 146.195312 9.132812 146.503906 8.621094 146.835938 8.125 C 147.167969 7.628906 147.519531 7.152344 147.898438 6.6875 C 148.277344 6.226562 148.679688 5.785156 149.101562 5.363281 C 149.523438 4.941406 149.964844 4.542969 150.425781 4.164062 C 150.886719 3.785156 151.367188 3.429688 151.863281 3.097656 C 152.359375 2.765625 152.871094 2.457031 153.398438 2.175781 C 153.925781 1.894531 154.460938 1.640625 155.015625 1.410156 C 155.566406 1.183594 156.125 0.980469 156.699219 0.808594 C 157.269531 0.632812 157.847656 0.488281 158.433594 0.371094 C 159.019531 0.253906 159.609375 0.167969 160.203125 0.109375 C 160.796875 0.046875 161.390625 0.0195312 161.988281 0.0195312 L 213.03125 0.0195312 C 213.625 0.0195312 214.222656 0.046875 214.816406 0.109375 C 215.410156 0.167969 216 0.253906 216.585938 0.371094 C 217.171875 0.488281 217.75 0.632812 218.320312 0.808594 C 218.890625 0.980469 219.453125 1.183594 220.003906 1.410156 C 220.554688 1.640625 221.09375 1.894531 221.621094 2.175781 C 222.148438 2.457031 222.660156 2.765625 223.15625 3.097656 C 223.652344 3.429688 224.128906 3.785156 224.589844 4.164062 C 225.050781 4.542969 225.496094 4.941406 225.917969 5.363281 C 226.339844 5.785156 226.738281 6.226562 227.117188 6.6875 C 227.496094 7.152344 227.851562 7.628906 228.183594 8.125 C 228.515625 8.621094 228.820312 9.132812 229.105469 9.660156 C 229.386719 10.1875 229.640625 10.726562 229.871094 11.277344 C 230.097656 11.828125 230.300781 12.390625 230.472656 12.960938 C 230.648438 13.53125 230.792969 14.109375 230.910156 14.695312 C 231.027344 15.28125 231.113281 15.871094 231.171875 16.464844 C 231.230469 17.058594 231.261719 17.652344 231.261719 18.25 L 231.261719 53.871094 C 238.066406 56.089844 244.660156 58.8125 251.046875 62.039062 L 276.230469 36.847656 C 276.652344 36.425781 277.097656 36.023438 277.558594 35.644531 C 278.019531 35.265625 278.5 34.910156 278.996094 34.582031 C 279.492188 34.25 280.003906 33.941406 280.53125 33.660156 C 281.058594 33.378906 281.597656 33.125 282.148438 32.898438 C 282.699219 32.667969 283.261719 32.46875 283.835938 32.292969 C 284.40625 32.121094 284.984375 31.976562 285.570312 31.859375 C 286.15625 31.742188 286.746094 31.65625 287.339844 31.597656 C 287.933594 31.539062 288.53125 31.511719 289.128906 31.511719 C 289.726562 31.511719 290.320312 31.539062 290.914062 31.597656 C 291.507812 31.65625 292.097656 31.742188 292.683594 31.859375 C 293.269531 31.976562 293.847656 32.121094 294.421875 32.292969 C 294.992188 32.46875 295.554688 32.667969 296.105469 32.898438 C 296.65625 33.125 297.195312 33.378906 297.722656 33.660156 C 298.25 33.941406 298.761719 34.25 299.257812 34.582031 C 299.757812 34.910156 300.234375 35.265625 300.695312 35.644531 C 301.160156 36.023438 301.601562 36.425781 302.023438 36.847656 L 338.152344 72.976562 C 338.574219 73.398438 338.972656 73.839844 339.351562 74.304688 C 339.730469 74.765625 340.085938 75.246094 340.417969 75.742188 C 340.746094 76.238281 341.054688 76.75 341.335938 77.277344 C 341.617188 77.804688 341.871094 78.34375 342.097656 78.894531 C 342.324219 79.445312 342.527344 80.007812 342.699219 80.582031 C 342.871094 81.152344 343.015625 81.730469 343.132812 82.316406 C 343.25 82.902344 343.335938 83.492188 343.394531 84.085938 C 343.453125 84.679688 343.484375 85.277344 343.484375 85.871094 C 343.484375 86.46875 343.453125 87.066406 343.394531 87.660156 C 343.335938 88.253906 343.25 88.84375 343.132812 89.429688 C 343.015625 90.015625 342.871094 90.59375 342.699219 91.164062 C 342.527344 91.734375 342.324219 92.296875 342.097656 92.847656 C 341.871094 93.402344 341.617188 93.941406 341.335938 94.46875 C 341.054688 94.996094 340.746094 95.507812 340.417969 96.003906 C 340.085938 96.5 339.730469 96.980469 339.351562 97.441406 C 338.972656 97.902344 338.574219 98.347656 338.152344 98.769531 L 312.914062 123.972656 C 316.160156 130.355469 318.898438 136.949219 321.128906 143.757812 L 356.738281 143.757812 C 357.335938 143.757812 357.933594 143.785156 358.527344 143.84375 C 359.121094 143.902344 359.710938 143.992188 360.296875 144.109375 C 360.882812 144.222656 361.460938 144.371094 362.03125 144.542969 C 362.605469 144.714844 363.164062 144.917969 363.71875 145.144531 C 364.269531 145.375 364.808594 145.628906 365.335938 145.910156 C 365.863281 146.191406 366.375 146.5 366.871094 146.832031 C 367.367188 147.164062 367.84375 147.519531 368.308594 147.898438 C 368.769531 148.277344 369.210938 148.675781 369.632812 149.097656 C 370.054688 149.519531 370.457031 149.960938 370.835938 150.425781 C 371.214844 150.886719 371.570312 151.363281 371.902344 151.859375 C 372.234375 152.355469 372.539062 152.867188 372.820312 153.394531 C 373.105469 153.921875 373.359375 154.460938 373.589844 155.011719 C 373.816406 155.5625 374.019531 156.125 374.191406 156.695312 C 374.367188 157.269531 374.511719 157.847656 374.628906 158.433594 C 374.746094 159.015625 374.832031 159.605469 374.890625 160.203125 C 374.953125 160.796875 374.980469 161.390625 374.980469 161.988281 L 374.980469 213.03125 C 374.980469 213.625 374.953125 214.222656 374.890625 214.816406 C 374.832031 215.410156 374.746094 216 374.628906 216.585938 C 374.511719 217.171875 374.367188 217.75 374.191406 218.320312 C 374.019531 218.894531 373.816406 219.453125 373.589844 220.007812 C 373.359375 220.558594 373.105469 221.097656 372.820312 221.625 C 372.539062 222.148438 372.234375 222.660156 371.902344 223.15625 C 371.570312 223.652344 371.214844 224.132812 370.835938 224.59375 C 370.457031 225.054688 370.054688 225.496094 369.632812 225.917969 C 369.210938 226.34375 368.769531 226.742188 368.308594 227.121094 C 367.84375 227.5 367.367188 227.855469 366.871094 228.1875 C 366.371094 228.519531 365.863281 228.824219 365.335938 229.105469 C 364.808594 229.386719 364.269531 229.644531 363.71875 229.871094 C 363.164062 230.101562 362.605469 230.300781 362.03125 230.476562 C 361.460938 230.648438 360.882812 230.792969 360.296875 230.910156 C 359.710938 231.027344 359.121094 231.113281 358.527344 231.171875 C 357.933594 231.230469 357.335938 231.261719 356.738281 231.261719 L 321.128906 231.261719 C 318.898438 238.066406 316.160156 244.664062 312.914062 251.046875 L 338.152344 276.230469 C 338.574219 276.652344 338.972656 277.097656 339.351562 277.558594 C 339.730469 278.019531 340.085938 278.5 340.417969 278.996094 C 340.746094 279.492188 341.054688 280.003906 341.335938 280.53125 C 341.617188 281.058594 341.871094 281.597656 342.097656 282.152344 C 342.324219 282.703125 342.527344 283.265625 342.699219 283.835938 C 342.871094 284.40625 343.015625 284.984375 343.132812 285.570312 C 343.25 286.15625 343.335938 286.746094 343.394531 287.339844 C 343.453125 287.933594 343.484375 288.53125 343.484375 289.128906 C 343.484375 289.722656 343.453125 290.320312 343.394531 290.914062 C 343.335938 291.507812 343.25 292.097656 343.132812 292.683594 C 343.015625 293.269531 342.871094 293.847656 342.699219 294.417969 C 342.527344 294.992188 342.324219 295.550781 342.097656 296.105469 C 341.871094 296.65625 341.617188 297.195312 341.335938 297.722656 C 341.054688 298.25 340.746094 298.761719 340.417969 299.257812 C 340.085938 299.753906 339.730469 300.234375 339.351562 300.695312 C 338.972656 301.160156 338.574219 301.601562 338.152344 302.023438 L 302.023438 338.152344 C 301.601562 338.574219 301.160156 338.976562 300.695312 339.355469 C 300.234375 339.734375 299.757812 340.089844 299.257812 340.417969 C 298.761719 340.75 298.25 341.058594 297.722656 341.339844 C 297.195312 341.621094 296.65625 341.875 296.105469 342.101562 C 295.554688 342.332031 294.992188 342.53125 294.421875 342.707031 C 293.847656 342.878906 293.269531 343.023438 292.683594 343.140625 C 292.097656 343.257812 291.507812 343.34375 290.914062 343.402344 C 290.320312 343.460938 289.726562 343.488281 289.128906 343.488281 C 288.53125 343.488281 287.933594 343.460938 287.339844 343.402344 C 286.746094 343.34375 286.15625 343.257812 285.570312 343.140625 C 284.984375 343.023438 284.40625 342.878906 283.835938 342.707031 C 283.261719 342.53125 282.699219 342.332031 282.148438 342.101562 C 281.597656 341.875 281.058594 341.621094 280.53125 341.339844 C 280.003906 341.058594 279.492188 340.75 278.996094 340.417969 C 278.5 340.089844 278.019531 339.734375 277.558594 339.355469 C 277.097656 338.976562 276.652344 338.574219 276.230469 338.152344 L 251.027344 312.914062 C 244.644531 316.160156 238.050781 318.898438 231.242188 321.128906 L 231.242188 356.75 C 231.242188 357.347656 231.214844 357.941406 231.15625 358.535156 C 231.09375 359.128906 231.007812 359.71875 230.890625 360.304688 C 230.773438 360.890625 230.628906 361.46875 230.457031 362.039062 C 230.28125 362.609375 230.082031 363.171875 229.851562 363.722656 C 229.625 364.273438 229.367188 364.8125 229.085938 365.335938 C 228.804688 365.863281 228.5 366.375 228.167969 366.871094 C 227.835938 367.367188 227.480469 367.847656 227.101562 368.308594 C 226.722656 368.769531 226.324219 369.210938 225.902344 369.632812 C 225.480469 370.054688 225.039062 370.457031 224.578125 370.835938 C 224.117188 371.214844 223.636719 371.570312 223.140625 371.898438 C 222.644531 372.230469 222.132812 372.539062 221.609375 372.820312 C 221.082031 373.101562 220.542969 373.359375 219.992188 373.585938 C 219.441406 373.816406 218.878906 374.015625 218.308594 374.191406 C 217.738281 374.363281 217.160156 374.511719 216.574219 374.625 C 215.988281 374.742188 215.398438 374.832031 214.804688 374.890625 C 214.210938 374.949219 213.617188 374.980469 213.019531 374.980469 Z M 122.320312 292.648438 C 123.941406 292.640625 125.453125 293.039062 126.859375 293.847656 C 135.820312 298.980469 145.285156 302.914062 155.246094 305.644531 C 155.722656 305.773438 156.1875 305.941406 156.636719 306.148438 C 157.085938 306.355469 157.515625 306.59375 157.925781 306.871094 C 158.335938 307.148438 158.722656 307.457031 159.082031 307.792969 C 159.441406 308.132812 159.769531 308.5 160.070312 308.890625 C 160.371094 309.285156 160.636719 309.699219 160.871094 310.136719 C 161.101562 310.574219 161.296875 311.027344 161.457031 311.496094 C 161.613281 311.960938 161.734375 312.441406 161.8125 312.929688 C 161.894531 313.417969 161.933594 313.910156 161.933594 314.402344 L 161.933594 356.765625 C 161.925781 356.828125 161.953125 356.859375 162.015625 356.859375 L 213.054688 356.859375 C 213.109375 356.859375 213.136719 356.832031 213.136719 356.777344 L 213.136719 314.375 C 213.136719 313.882812 213.179688 313.390625 213.257812 312.902344 C 213.339844 312.414062 213.457031 311.9375 213.617188 311.46875 C 213.773438 311 213.96875 310.546875 214.203125 310.109375 C 214.433594 309.671875 214.699219 309.257812 215 308.863281 C 215.300781 308.472656 215.632812 308.105469 215.992188 307.765625 C 216.351562 307.429688 216.738281 307.121094 217.148438 306.84375 C 217.558594 306.566406 217.988281 306.328125 218.4375 306.121094 C 218.886719 305.914062 219.351562 305.746094 219.828125 305.617188 C 229.785156 302.890625 239.246094 298.957031 248.207031 293.820312 C 249.070312 293.328125 249.988281 292.988281 250.960938 292.800781 C 251.933594 292.609375 252.914062 292.582031 253.898438 292.714844 C 254.882812 292.847656 255.816406 293.132812 256.707031 293.570312 C 257.597656 294.011719 258.394531 294.582031 259.097656 295.28125 L 289.046875 325.230469 C 289.089844 325.269531 289.128906 325.269531 289.171875 325.230469 L 325.257812 289.144531 C 325.296875 289.101562 325.296875 289.0625 325.257812 289.019531 L 295.308594 259.070312 C 294.609375 258.367188 294.039062 257.570312 293.597656 256.679688 C 293.160156 255.789062 292.875 254.855469 292.742188 253.871094 C 292.609375 252.886719 292.636719 251.90625 292.828125 250.933594 C 293.015625 249.960938 293.355469 249.042969 293.847656 248.179688 C 298.984375 239.21875 302.914062 229.761719 305.644531 219.800781 C 305.773438 219.324219 305.941406 218.859375 306.148438 218.410156 C 306.355469 217.960938 306.59375 217.53125 306.871094 217.121094 C 307.148438 216.710938 307.457031 216.324219 307.792969 215.964844 C 308.132812 215.605469 308.5 215.273438 308.890625 214.972656 C 309.285156 214.671875 309.699219 214.40625 310.136719 214.175781 C 310.574219 213.941406 311.027344 213.746094 311.496094 213.589844 C 311.960938 213.429688 312.441406 213.3125 312.929688 213.230469 C 313.417969 213.152344 313.910156 213.109375 314.402344 213.109375 L 356.765625 213.109375 C 356.828125 213.117188 356.859375 213.089844 356.859375 213.03125 L 356.859375 161.980469 C 356.859375 161.917969 356.828125 161.890625 356.765625 161.898438 L 314.375 161.898438 C 313.882812 161.898438 313.390625 161.859375 312.902344 161.777344 C 312.414062 161.699219 311.9375 161.578125 311.46875 161.421875 C 311 161.261719 310.546875 161.066406 310.109375 160.832031 C 309.671875 160.601562 309.257812 160.335938 308.867188 160.035156 C 308.472656 159.734375 308.105469 159.40625 307.765625 159.042969 C 307.429688 158.683594 307.121094 158.300781 306.84375 157.890625 C 306.566406 157.480469 306.328125 157.050781 306.121094 156.597656 C 305.914062 156.148438 305.746094 155.6875 305.617188 155.210938 C 302.890625 145.25 298.957031 135.789062 293.820312 126.832031 C 293.328125 125.96875 292.988281 125.050781 292.800781 124.074219 C 292.609375 123.101562 292.582031 122.121094 292.714844 121.136719 C 292.847656 120.15625 293.132812 119.21875 293.570312 118.328125 C 294.011719 117.4375 294.582031 116.640625 295.28125 115.941406 L 325.230469 85.992188 C 325.269531 85.949219 325.269531 85.910156 325.230469 85.871094 L 289.191406 49.726562 C 289.148438 49.683594 289.105469 49.683594 289.0625 49.726562 L 259.113281 79.675781 C 258.410156 80.375 257.617188 80.945312 256.726562 81.382812 C 255.835938 81.824219 254.898438 82.109375 253.914062 82.238281 C 252.933594 82.371094 251.953125 82.34375 250.980469 82.152344 C 250.003906 81.964844 249.085938 81.625 248.222656 81.136719 C 239.265625 76 229.804688 72.066406 219.84375 69.335938 C 219.367188 69.207031 218.90625 69.039062 218.453125 68.832031 C 218.003906 68.628906 217.574219 68.386719 217.164062 68.109375 C 216.753906 67.835938 216.371094 67.527344 216.007812 67.1875 C 215.648438 66.847656 215.320312 66.480469 215.019531 66.089844 C 214.71875 65.695312 214.453125 65.28125 214.21875 64.84375 C 213.988281 64.410156 213.792969 63.957031 213.632812 63.488281 C 213.476562 63.019531 213.355469 62.539062 213.277344 62.054688 C 213.195312 61.566406 213.15625 61.074219 213.15625 60.578125 L 213.15625 18.25 C 213.15625 18.195312 213.128906 18.167969 213.074219 18.167969 L 161.980469 18.167969 C 161.925781 18.167969 161.898438 18.195312 161.898438 18.25 L 161.898438 60.625 C 161.898438 61.117188 161.859375 61.609375 161.777344 62.097656 C 161.699219 62.585938 161.578125 63.0625 161.421875 63.53125 C 161.261719 64 161.066406 64.453125 160.832031 64.890625 C 160.601562 65.328125 160.335938 65.742188 160.035156 66.132812 C 159.734375 66.527344 159.40625 66.894531 159.042969 67.234375 C 158.683594 67.570312 158.300781 67.878906 157.890625 68.15625 C 157.480469 68.433594 157.050781 68.671875 156.597656 68.878906 C 156.148438 69.085938 155.6875 69.253906 155.210938 69.382812 C 145.246094 72.113281 135.785156 76.046875 126.820312 81.179688 C 125.957031 81.671875 125.039062 82.011719 124.066406 82.199219 C 123.09375 82.390625 122.113281 82.417969 121.128906 82.285156 C 120.144531 82.152344 119.210938 81.867188 118.320312 81.429688 C 117.429688 80.988281 116.632812 80.417969 115.929688 79.71875 L 85.980469 49.769531 C 85.9375 49.730469 85.898438 49.730469 85.855469 49.769531 L 49.726562 85.855469 C 49.683594 85.894531 49.683594 85.933594 49.726562 85.972656 L 79.675781 115.921875 C 80.375 116.625 80.945312 117.421875 81.382812 118.3125 C 81.824219 119.199219 82.109375 120.136719 82.238281 121.121094 C 82.371094 122.105469 82.34375 123.082031 82.152344 124.058594 C 81.964844 125.03125 81.625 125.949219 81.136719 126.8125 C 76 135.769531 72.066406 145.230469 69.335938 155.191406 C 69.207031 155.667969 69.039062 156.132812 68.832031 156.582031 C 68.628906 157.03125 68.386719 157.460938 68.109375 157.871094 C 67.835938 158.28125 67.527344 158.667969 67.1875 159.027344 C 66.847656 159.386719 66.480469 159.714844 66.089844 160.015625 C 65.695312 160.316406 65.28125 160.582031 64.84375 160.816406 C 64.410156 161.046875 63.957031 161.242188 63.488281 161.402344 C 63.019531 161.558594 62.539062 161.679688 62.054688 161.757812 C 61.566406 161.839844 61.074219 161.878906 60.578125 161.878906 L 18.25 161.878906 C 18.195312 161.878906 18.167969 161.90625 18.167969 161.960938 L 18.167969 213.003906 C 18.167969 213.054688 18.195312 213.082031 18.25 213.082031 L 60.625 213.082031 C 61.117188 213.082031 61.609375 213.125 62.097656 213.203125 C 62.585938 213.285156 63.0625 213.402344 63.53125 213.5625 C 64 213.71875 64.453125 213.914062 64.890625 214.148438 C 65.328125 214.378906 65.742188 214.648438 66.132812 214.945312 C 66.527344 215.246094 66.894531 215.578125 67.234375 215.9375 C 67.570312 216.296875 67.878906 216.683594 68.15625 217.09375 C 68.433594 217.503906 68.671875 217.933594 68.878906 218.382812 C 69.085938 218.832031 69.253906 219.296875 69.382812 219.773438 C 72.109375 229.734375 76.042969 239.191406 81.179688 248.152344 C 81.671875 249.015625 82.011719 249.933594 82.199219 250.90625 C 82.390625 251.882812 82.417969 252.859375 82.285156 253.84375 C 82.152344 254.828125 81.867188 255.761719 81.429688 256.652344 C 80.988281 257.542969 80.417969 258.339844 79.71875 259.042969 L 49.769531 288.992188 C 49.734375 289.035156 49.734375 289.074219 49.769531 289.117188 L 85.855469 325.273438 C 85.898438 325.316406 85.9375 325.316406 85.980469 325.273438 L 115.929688 295.324219 C 116.777344 294.476562 117.753906 293.816406 118.859375 293.355469 C 119.964844 292.890625 121.121094 292.65625 122.320312 292.648438 Z M 187.617188 284.136719 C 184.445312 284.148438 181.28125 284.007812 178.125 283.707031 C 174.964844 283.40625 171.832031 282.953125 168.71875 282.339844 C 165.605469 281.730469 162.53125 280.96875 159.492188 280.054688 C 156.453125 279.140625 153.46875 278.078125 150.539062 276.871094 C 147.605469 275.660156 144.738281 274.308594 141.941406 272.816406 C 139.140625 271.324219 136.425781 269.695312 133.785156 267.933594 C 131.148438 266.171875 128.605469 264.285156 126.152344 262.273438 C 123.703125 260.257812 121.355469 258.128906 119.117188 255.882812 C 91.960938 228.738281 83.640625 188.660156 97.398438 151.308594 C 98.53125 148.226562 99.824219 145.21875 101.285156 142.28125 C 102.742188 139.339844 104.355469 136.488281 106.121094 133.726562 C 107.890625 130.960938 109.800781 128.300781 111.855469 125.742188 C 113.910156 123.1875 116.101562 120.75 118.417969 118.429688 C 120.738281 116.109375 123.179688 113.921875 125.734375 111.867188 C 128.292969 109.808594 130.953125 107.898438 133.714844 106.132812 C 136.480469 104.363281 139.332031 102.75 142.269531 101.292969 C 145.210938 99.835938 148.21875 98.539062 151.296875 97.40625 C 188.652344 83.640625 228.730469 91.960938 255.882812 119.117188 C 283.039062 146.269531 291.359375 186.339844 277.601562 223.703125 C 276.46875 226.78125 275.171875 229.789062 273.714844 232.730469 C 272.253906 235.667969 270.640625 238.519531 268.875 241.28125 C 267.105469 244.046875 265.195312 246.707031 263.136719 249.265625 C 261.082031 251.820312 258.894531 254.257812 256.574219 256.578125 C 254.253906 258.898438 251.816406 261.085938 249.257812 263.140625 C 246.699219 265.199219 244.039062 267.109375 241.277344 268.875 C 238.511719 270.644531 235.660156 272.257812 232.71875 273.714844 C 229.78125 275.171875 226.773438 276.46875 223.691406 277.601562 C 212.058594 281.925781 200.03125 284.105469 187.617188 284.136719 Z M 187.753906 108.898438 C 177.367188 108.949219 167.308594 110.792969 157.578125 114.433594 C 155.113281 115.339844 152.707031 116.375 150.355469 117.542969 C 148.003906 118.707031 145.71875 119.996094 143.507812 121.410156 C 141.296875 122.824219 139.167969 124.355469 137.121094 126 C 135.074219 127.644531 133.121094 129.394531 131.265625 131.25 C 129.40625 133.105469 127.65625 135.054688 126.011719 137.101562 C 124.367188 139.144531 122.835938 141.273438 121.421875 143.484375 C 120.003906 145.695312 118.714844 147.976562 117.546875 150.328125 C 116.378906 152.679688 115.339844 155.085938 114.433594 157.550781 C 102.980469 188.644531 109.523438 220.597656 131.949219 243.015625 C 133.75 244.84375 135.636719 246.574219 137.609375 248.214844 C 139.582031 249.855469 141.632812 251.390625 143.757812 252.828125 C 145.886719 254.261719 148.078125 255.589844 150.335938 256.804688 C 152.59375 258.023438 154.90625 259.125 157.273438 260.113281 C 159.640625 261.101562 162.054688 261.96875 164.507812 262.714844 C 166.960938 263.460938 169.445312 264.085938 171.964844 264.585938 C 174.480469 265.085938 177.015625 265.457031 179.566406 265.707031 C 182.121094 265.953125 184.679688 266.074219 187.246094 266.066406 C 197.632812 266.019531 207.691406 264.175781 217.421875 260.53125 C 219.886719 259.625 222.292969 258.589844 224.644531 257.425781 C 226.996094 256.261719 229.277344 254.972656 231.488281 253.558594 C 233.699219 252.148438 235.828125 250.621094 237.875 248.976562 C 239.921875 247.335938 241.871094 245.585938 243.730469 243.730469 C 245.585938 241.878906 247.335938 239.929688 248.984375 237.886719 C 250.628906 235.839844 252.160156 233.714844 253.574219 231.503906 C 254.992188 229.296875 256.28125 227.015625 257.453125 224.667969 C 258.621094 222.316406 259.660156 219.910156 260.566406 217.449219 C 272.019531 186.355469 265.476562 154.402344 243.050781 131.976562 C 241.25 130.148438 239.363281 128.414062 237.390625 126.773438 C 235.417969 125.132812 233.371094 123.59375 231.242188 122.15625 C 229.117188 120.71875 226.925781 119.390625 224.667969 118.171875 C 222.410156 116.953125 220.097656 115.851562 217.730469 114.863281 C 215.359375 113.875 212.949219 113.007812 210.496094 112.257812 C 208.042969 111.511719 205.554688 110.886719 203.039062 110.382812 C 200.523438 109.882812 197.988281 109.507812 195.433594 109.261719 C 192.878906 109.011719 190.320312 108.890625 187.753906 108.898438 Z M 187.753906 108.898438 " fill-opacity="1" fill-rule="nonzero"/></svg>