<svg xmlns="http://www.w3.org/2000/svg" xmlns:xlink="http://www.w3.org/1999/xlink" width="500" zoomAndPan="magnify" viewBox="0 0 375 374.999991" height="500" preserveAspectRatio="xMidYMid meet" version="1.0"><defs><clipPath id="be213d56fc"><path d="M 148 242 L 227 242 L 227 345.507812 L 148 345.507812 Z M 148 242 " clip-rule="nonzero"/></clipPath><clipPath id="42940cdcea"><path d="M 261 29.0625 L 340 29.0625 L 340 136 L 261 136 Z M 261 29.0625 " clip-rule="nonzero"/></clipPath><clipPath id="ecb8f9c714"><path d="M 261 181 L 340 181 L 340 345.507812 L 261 345.507812 Z M 261 181 " clip-rule="nonzero"/></clipPath></defs><path fill="#003348" d="M 77.167969 201.707031 C 85.625 201.707031 93.726562 204.394531 99.851562 209.773438 L 112.941406 198.628906 L 112.941406 155.5625 C 112.941406 149.796875 108.339844 144.804688 102.183594 144.804688 L 46.027344 144.804688 C 40.261719 144.804688 35.269531 149.40625 35.269531 155.5625 L 35.269531 218.230469 L 60.253906 205.527344 C 65.632812 203.226562 71.398438 201.707031 77.167969 201.707031 " fill-opacity="1" fill-rule="nonzero"/><path fill="#003348" d="M 77.558594 285.144531 L 72.179688 280.898438 L 39.09375 297.457031 C 37.960938 298.203125 36.792969 298.589844 35.269531 298.980469 L 35.269531 333.972656 C 35.269531 339.742188 39.871094 344.730469 46.027344 344.730469 L 102.183594 344.730469 C 107.949219 344.730469 112.941406 340.128906 112.941406 333.972656 L 112.941406 290.910156 C 108.695312 292.433594 104.871094 293.210938 100.238281 293.210938 C 92.171875 293.210938 84.101562 290.523438 77.558594 285.144531 " fill-opacity="1" fill-rule="nonzero"/><path fill="#003348" d="M 160.996094 173.253906 L 187.53125 176.691406 L 223.660156 134.40625 C 224.472656 133.625 225.21875 132.492188 225.996094 131.714844 L 225.996094 97.496094 C 225.996094 91.730469 221.394531 86.738281 215.238281 86.738281 L 159.472656 86.738281 C 153.703125 86.738281 148.714844 91.339844 148.714844 97.496094 L 148.714844 173.644531 C 151.402344 173.253906 153.703125 172.867188 156.394531 172.867188 C 158.304688 172.867188 159.859375 173.253906 160.996094 173.253906 " fill-opacity="1" fill-rule="nonzero"/><g clip-path="url(#be213d56fc)"><path fill="#003348" d="M 197.933594 250.925781 L 167.929688 247.070312 L 148.714844 263.59375 L 148.714844 334.363281 C 148.714844 340.128906 153.316406 345.121094 159.472656 345.121094 L 215.625 345.121094 C 221.394531 345.121094 226.382812 340.519531 226.382812 334.363281 L 226.382812 242.078125 C 219.839844 247.847656 211.382812 250.925781 202.535156 250.925781 C 201.011719 250.925781 199.457031 250.925781 197.933594 250.925781 " fill-opacity="1" fill-rule="nonzero"/></g><g clip-path="url(#42940cdcea)"><path fill="#003348" d="M 284.0625 135.183594 L 323.269531 84.40625 C 327.511719 79.027344 332.890625 74.816406 339.4375 72.871094 L 339.4375 39.820312 C 339.4375 34.050781 334.804688 29.03125 328.679688 29.03125 L 272.523438 29.0625 C 266.757812 29.0625 261.765625 33.664062 261.765625 39.820312 L 261.765625 123.648438 C 264.457031 124.425781 266.757812 125.167969 269.058594 126.726562 L 284.0625 135.183594 " fill-opacity="1" fill-rule="nonzero"/></g><g clip-path="url(#ecb8f9c714)"><path fill="#003348" d="M 293.296875 218.621094 C 287.140625 218.621094 280.59375 217.097656 275.214844 214.019531 L 261.765625 206.308594 L 261.765625 334.753906 C 261.765625 340.519531 266.367188 345.507812 272.523438 345.507812 L 328.679688 345.507812 C 334.449219 345.507812 339.4375 340.910156 339.4375 334.753906 L 339.4375 181.710938 L 322.101562 204.394531 C 315.199219 213.628906 304.832031 218.621094 293.296875 218.621094 " fill-opacity="1" fill-rule="nonzero"/></g><path fill="#003348" d="M 363.285156 92.117188 C 355.574219 85.960938 344.039062 87.484375 337.882812 95.195312 L 288.660156 159.03125 L 260.210938 142.472656 C 252.53125 138.261719 243.296875 139.785156 237.53125 146.328125 L 195.210938 195.9375 L 159.082031 191.335938 C 154.058594 190.558594 149.070312 192.082031 145.246094 195.550781 L 100.628906 233.621094 L 88.703125 224 C 83.324219 219.398438 75.644531 218.621094 69.097656 221.699219 L 14.890625 249.371094 C 6.042969 254.003906 2.578125 264.761719 6.789062 273.609375 C 9.867188 279.765625 16.414062 283.621094 22.957031 283.621094 C 25.648438 283.621094 28.335938 282.84375 31.027344 281.675781 L 74.476562 259.382812 L 88.703125 271.308594 C 95.636719 276.6875 105.230469 276.6875 111.773438 270.917969 L 161.773438 228.242188 L 199.457031 232.84375 C 205.613281 233.621094 211.382812 231.320312 215.238281 226.6875 L 254.445312 181.324219 L 283.671875 198.238281 C 291.351562 202.839844 301.363281 200.929688 307.132812 193.636719 L 365.585938 117.878906 C 372.488281 109.8125 370.964844 98.273438 363.285156 92.117188 " fill-opacity="1" fill-rule="nonzero"/></svg>